<svg xmlns="http://www.w3.org/2000/svg" xmlns:xlink="http://www.w3.org/1999/xlink" viewBox="0 0 1920 1080"><defs><style>.cls-1{fill:none;}.cls-2{isolation:isolate;}.cls-3{clip-path:url(#clip-path);}.cls-4,.cls-7{fill:#90d5df;}.cls-5,.cls-6{fill:#fff;}.cls-19,.cls-20,.cls-34,.cls-6{opacity:0.7;}.cls-19,.cls-25,.cls-38,.cls-39,.cls-7{mix-blend-mode:screen;}.cls-10,.cls-8,.cls-9{fill:#5ba72b;}.cls-12,.cls-15,.cls-18,.cls-26,.cls-28,.cls-32,.cls-33,.cls-34,.cls-9{mix-blend-mode:multiply;}.cls-10,.cls-20{mix-blend-mode:color-dodge;}.cls-11,.cls-12{fill:#83c240;}.cls-13{fill:#bfd731;}.cls-14{fill:#40661a;}.cls-15,.cls-38{opacity:0.6;}.cls-16{fill:#a8cf38;}.cls-17,.cls-19{fill:#135548;}.cls-18{fill:#0f443a;}.cls-18,.cls-26{opacity:0.4;}.cls-20{fill:#1f8447;}.cls-21{fill:#218f4f;}.cls-22{fill:#995336;}.cls-23{fill:#ba6644;}.cls-24,.cls-25{fill:#9c5e39;}.cls-26{fill:#9fb63a;}.cls-27{fill:#f8c95c;}.cls-28{fill:#bbd431;opacity:0.9;}.cls-29,.cls-33,.cls-34,.cls-38,.cls-39{fill:#ba864d;}.cls-30{fill:#905a2a;}.cls-31,.cls-32{fill:#d9c7a8;}.cls-33{opacity:0.5;}.cls-35{fill:#3d9919;}.cls-36{fill:#729e07;}.cls-37{fill:#99bb16;}</style><clipPath id="clip-path"><rect class="cls-1" width="1920" height="1080"/></clipPath></defs><g class="cls-2"><g id="Layer_1" data-name="Layer 1"><g class="cls-3"><rect class="cls-4" x="0" width="1920" height="1080"/><path class="cls-5" d="M447.2,259.11c-7.29-1.64-15.73-1.24-23.25.43l.1-.21c1.47-3.15-1.53-5.24-4.34-7-4.71-3-12.84-2.39-18.17.38,3.95-6.75,3.31-15.27-4.19-20.25-7.29-4.84-18.51-3.68-27-2.61-11.95,1.51-23.09,5.53-32,12.7a42.84,42.84,0,0,0-4.72,4.5,25.9,25.9,0,0,0-3.89-.39c-6-.14-12,2-17,4.73-3.83,2.07-6.08,5-6.32,8.56l-.66-.09a72.55,72.55,0,0,0-10-.14A161.06,161.06,0,0,0,271.89,263a117.13,117.13,0,0,0-20.72,5.82c-2.58,1-7.88,4.12-6.35,7.15,1.77,3.51,10.56,2.48,13.67,2.28,7-.46,13.26-2.84,19.77-4.67A3.82,3.82,0,0,0,278,277c1.17,3.49,7.45,3.76,10.72,3.9a39.48,39.48,0,0,0,5.74-.41l5.88,1.77c1.95,1.44,5.48,1.93,7.51,2.26a94.17,94.17,0,0,0,33.4-1.14c5.39-1.18,11.08-2.22,16.13-4.27,3.44-1.4,5.7-4.32,7.57-7.09,2.36,2,3.32,4.06,6.68,5.11,3.85,1.22,8.65,1.19,12.7,1.32a58.67,58.67,0,0,0,22.8-3.5,28.29,28.29,0,0,0,4.38-2.08c3.31,0,6.65-.28,9.75-.57,5.27-.5,10.57-.67,15.85-1.18,4.19-.41,9-.52,12.57-2.65,1.64-1,3.71-2.43,4-4.26C454.05,261,450.16,259.79,447.2,259.11Z" transform="translate(50.97 17.09)"/><path class="cls-5" d="M1565.13,292.17c-10.44-2.37-22.55-1.79-33.33.6a2.64,2.64,0,0,0,.15-.29c2.11-4.52-2.2-7.51-6.23-10.06-6.74-4.25-18.4-3.42-26,.55,5.65-9.68,4.74-21.88-6-29-10.44-6.93-26.52-5.26-38.65-3.74-17.12,2.17-33.1,7.94-45.8,18.23a55,55,0,0,0-6.77,6.44,35.54,35.54,0,0,0-5.59-.56c-8.65-.21-17.18,2.92-24.35,6.78-5.49,3-8.72,7.12-9.08,12.26-.34-.05-.66-.1-.94-.12a102.16,102.16,0,0,0-14.32-.21,231,231,0,0,0-34.33,4.72c-10.34,2.08-20,4.47-29.69,8.34-3.7,1.47-11.29,5.9-9.1,10.26,2.53,5,15.13,3.55,19.6,3.25,10-.66,19-4.06,28.33-6.69a5.48,5.48,0,0,0-.44,4.92c1.68,5,10.69,5.38,15.36,5.58a55.29,55.29,0,0,0,8.23-.6l8.44,2.54c2.79,2.06,7.84,2.78,10.76,3.24,15.1,2.43,33,1.64,47.87-1.62,7.72-1.7,15.87-3.2,23.11-6.13,4.93-2,8.18-6.19,10.86-10.17,3.37,2.8,4.74,5.82,9.58,7.34,5.52,1.74,12.39,1.7,18.19,1.88a84.17,84.17,0,0,0,32.68-5,40.33,40.33,0,0,0,6.28-3,137,137,0,0,0,14-.81c7.55-.71,15.16-1,22.71-1.69,6-.58,12.86-.75,18-3.8,2.35-1.4,5.32-3.47,5.69-6.11C1575,294.89,1569.37,293.13,1565.13,292.17Z" transform="translate(50.97 17.09)"/><path class="cls-5" d="M1547,528.76a40.52,40.52,0,0,0-17.11.31l.07-.15c1.08-2.32-1.13-3.87-3.2-5.17-3.47-2.18-9.46-1.76-13.38.28,2.91-5,2.43-11.24-3.09-14.92-5.37-3.56-13.63-2.7-19.87-1.91-8.79,1.11-17,4.07-23.53,9.36a28.71,28.71,0,0,0-3.48,3.31,17.67,17.67,0,0,0-2.87-.29,25.59,25.59,0,0,0-12.52,3.49c-2.82,1.51-4.48,3.66-4.66,6.3-.18,0-.34-.06-.49-.07a53.17,53.17,0,0,0-7.36-.11,118.62,118.62,0,0,0-17.64,2.43,86.68,86.68,0,0,0-15.26,4.28c-1.9.76-5.79,3-4.68,5.28,1.31,2.57,7.78,1.82,10.08,1.66,5.13-.34,9.75-2.07,14.56-3.43a2.79,2.79,0,0,0-.23,2.52c.87,2.57,5.49,2.77,7.89,2.87a27.4,27.4,0,0,0,4.24-.3l4.33,1.31c1.44,1.05,4,1.43,5.53,1.66a69.17,69.17,0,0,0,24.6-.84c4-.87,8.16-1.63,11.88-3.14,2.54-1,4.2-3.18,5.58-5.22,1.74,1.43,2.44,3,4.92,3.77,2.84.89,6.37.87,9.35,1a43.21,43.21,0,0,0,16.79-2.57,21.7,21.7,0,0,0,3.24-1.55c2.43,0,4.9-.2,7.18-.41,3.88-.37,7.79-.5,11.67-.88,3.09-.29,6.61-.37,9.26-1.94,1.21-.72,2.73-1.79,2.93-3.15C1552.07,530.16,1549.2,529.26,1547,528.76Z" transform="translate(50.97 17.09)"/><path class="cls-6" d="M1148.1,148.62c-15.11-4-32.88-3.76-48.82-.79l.23-.4c3.41-6.52-2.7-11.13-8.42-15.07-9.59-6.56-26.73-5.92-38.15-.48,8.91-13.88,8.44-31.8-6.84-42.82-14.82-10.65-38.47-9-56.33-7.38-25.23,2.3-49,9.95-68.28,24.37a83.58,83.58,0,0,0-10.37,9.11,49.42,49.42,0,0,0-8.15-1.11c-12.64-.78-25.34,3.4-36.08,8.7-8.24,4.08-13.25,10-14.13,17.51a12.66,12.66,0,0,0-1.37-.25,149.77,149.77,0,0,0-21-1c-17,.25-33.91,2.41-50.58,5.18-15.25,2.54-29.61,5.56-44,10.72-5.52,2-17,8.1-14,14.55,3.35,7.49,21.91,6,28.48,5.76,14.67-.46,28.07-5,41.9-8.37a8.2,8.2,0,0,0-1,7.19c2.14,7.38,15.28,8.39,22.11,8.94,4.07.31,8-.2,12.1-.48l12.24,4.17c4,3.14,11.25,4.44,15.47,5.28,22,4.28,48.24,4,70.19,0,11.4-2.08,23.45-3.86,34.25-7.8,7.35-2.68,12.39-8.65,16.6-14.34,4.72,4.27,6.52,8.74,13.51,11.22,8,2.83,18,3.13,26.51,3.68,16.69,1,32.56-.46,48.17-5.7a58.66,58.66,0,0,0,9.39-4.08c7,.28,14-.1,20.52-.48,11.11-.67,22.25-.65,33.39-1.36,8.83-.54,18.86-.43,26.62-4.65,3.54-1.91,8-4.82,8.76-8.66C1162.32,153.09,1154.24,150.25,1148.1,148.62Z" transform="translate(50.97 17.09)"/><path class="cls-6" d="M908.15,350a22.46,22.46,0,0,0-9.58.17.36.36,0,0,1,0-.09c.6-1.29-.63-2.15-1.79-2.89-1.94-1.22-5.29-1-7.48.16,1.62-2.78,1.36-6.29-1.73-8.34S880,337.52,876.5,338a25.94,25.94,0,0,0-13.17,5.24,15.46,15.46,0,0,0-1.94,1.85,9.75,9.75,0,0,0-1.6-.16,14.37,14.37,0,0,0-7,1.95,4.37,4.37,0,0,0-2.61,3.53l-.27,0a29.82,29.82,0,0,0-4.12-.06,66.56,66.56,0,0,0-9.87,1.35,48,48,0,0,0-8.52,2.4c-1.07.43-3.25,1.7-2.62,3,.73,1.44,4.34,1,5.63.93a39.07,39.07,0,0,0,8.14-1.92,1.54,1.54,0,0,0-.12,1.41c.48,1.44,3.06,1.54,4.41,1.61a14.35,14.35,0,0,0,2.36-.18l2.43.73a7.77,7.77,0,0,0,3.1.94,39,39,0,0,0,13.75-.47,41.07,41.07,0,0,0,6.64-1.77,7.21,7.21,0,0,0,3.12-2.91c1,.8,1.37,1.67,2.76,2.1a19.8,19.8,0,0,0,5.22.55,24.23,24.23,0,0,0,9.4-1.45,10.32,10.32,0,0,0,1.8-.86,37,37,0,0,0,4-.23c2.18-.2,4.36-.28,6.53-.48,1.73-.17,3.7-.22,5.18-1.09.67-.41,1.53-1,1.64-1.76C911,350.81,909.36,350.3,908.15,350Z" transform="translate(50.97 17.09)"/><path class="cls-5" d="M576.87,710.91a44.72,44.72,0,0,0-19,.34.53.53,0,0,0,.09-.16c1.21-2.58-1.25-4.29-3.54-5.75-3.85-2.41-10.5-2-14.86.33,3.23-5.53,2.71-12.49-3.43-16.57-6-4-15.13-3-22-2.13-9.78,1.23-18.88,4.53-26.12,10.39a32.15,32.15,0,0,0-3.87,3.68,20.41,20.41,0,0,0-3.19-.32c-4.93-.13-9.8,1.66-13.88,3.86-3.14,1.7-5,4.07-5.18,7a4.42,4.42,0,0,0-.54-.08,58.79,58.79,0,0,0-8.18-.12,131.35,131.35,0,0,0-19.58,2.69,95.48,95.48,0,0,0-16.93,4.76c-2.11.84-6.44,3.38-5.19,5.84,1.44,2.88,8.63,2,11.18,1.87,5.7-.37,10.84-2.32,16.15-3.82a3.16,3.16,0,0,0-.23,2.8c1,2.85,6.08,3.08,8.75,3.19a31.87,31.87,0,0,0,4.69-.34l4.85,1.46c1.6,1.16,4.45,1.57,6.11,1.85a77.53,77.53,0,0,0,27.3-1c4.4-1,9-1.81,13.18-3.48,2.81-1.15,4.67-3.54,6.21-5.81,1.91,1.6,2.69,3.32,5.45,4.19,3.15,1,7.06,1,10.38,1.07a48.21,48.21,0,0,0,18.64-2.85,21.23,21.23,0,0,0,3.57-1.72,76,76,0,0,0,8-.46c4.31-.4,8.65-.54,13-1,3.42-.33,7.33-.43,10.27-2.16,1.34-.79,3-2,3.25-3.5C582.48,712.46,579.3,711.45,576.87,710.91Z" transform="translate(50.97 17.09)"/><path class="cls-7" d="M1923.74,552.54c-78.79,13-144.18,61.29-169.43,124.77-35.41-19.82-80.64-26.21-124-14-46.73,13.16-80.26,44.87-93.18,82.43A268.73,268.73,0,0,0,1434,725.48c-92.82,0-173.13,45.8-211.81,112.45-28.29-22.85-66.4-36.9-108.37-36.9-56.76,0-106.52,25.66-134.34,64.16C958.12,781.06,870.68,718,766,718c-84.23,0-157.32,40.83-193.74,100.65-37.46-25.81-85-41.25-136.83-41.25-81.47,0-152.51,38.2-190,94.82h-3.3c-9-30.26-31.34-55.94-61.28-72.29a164.56,164.56,0,0,0,12-61.58c0-100.69-91.78-183-207.6-189v568.87H1923.74Z"/><path class="cls-8" d="M1804.37,998.72a19.56,19.56,0,0,0,10.8-11.77c1.56-4.2-2.09-9.83-5.51-12.57a38.35,38.35,0,0,0-4.67-3.12c1.29-2.16,1-4.76-.52-7.27a12.6,12.6,0,0,0-2.61-3.06c11.19-3.87,20.49-11,15.74-19.52-3.95-7.08-11.6-11.2-20.26-13.17a30.23,30.23,0,0,0-11.55-.17c2.47-3.55,3.83-7.33,2.79-9.59-1.77-3.85-5.57-5.1-9.7-5,.11-.33.25-.68.36-1,1.55-4.51,1.13-11-3.54-14.18-8.28-5.71-17-2.24-23.8,4.18a30.54,30.54,0,0,0-.21-4.4c-1.3-10.82-17.59-11.88-26.85-8.88a18.35,18.35,0,0,0-6.28,3.56,1.42,1.42,0,0,0-.3.25,28,28,0,0,0-6.82,9.12c-4.52-9.66-13-17.4-24.17-12.87-5.44,2.2-7.58,8.38-7.31,13.07,0,.33.06.71.08,1-4-1-8-.52-10.79,2.88-1.64,2-1.34,5.94.11,9.88a29.45,29.45,0,0,0-11.29-2.16c-9,.17-17.52,2.63-23.28,8.7-6.94,7.34.15,16.16,10,22.17a15,15,0,0,0-3.36,2.43c-2.13,2.15-3.14,4.61-2.48,7a42.57,42.57,0,0,0-5.39,2.09c-4.08,2-9.15,6.72-8.79,11.11.47,5.55,2.8,10.46,7.29,13.64-7.12,3.69-12.08,10.15-11.69,18,.27,5.27,5.11,8.59,10.5,10.15a6.71,6.71,0,0,0-1.24,4.82c.43,3.1,5.46,3,8,2.49h0c-4.31,4-8,8.92-5.35,13.86,3.72,7,13.69,6.42,20.61,3.9-1.79,3.07-2.08,5.92,1,7.73,4.39,2.66,12.08.51,17.2-1.53,2.89,3.24,8.52,5.33,12.44,6a27,27,0,0,0,13.75-1.68,7.75,7.75,0,0,0,3.28,3.11c6,3.29,15.07.38,21.06-2.16a25.31,25.31,0,0,0,15.07,6.16c4,.14,10-.75,13.73-3.31,4.43,3,11.31,6.64,16.32,5,3.44-1.17,3.93-4,3-7.36,6.07,3.85,15.6,6.45,21.12.38,3.91-4.27,1.67-9.77-1.43-14.54h0c2.3,1,7.14,2.1,8.42-.81a6.51,6.51,0,0,0,.1-4.94c5.65-.44,11.29-2.69,13-7.76C1813.36,1011,1810.29,1003.77,1804.37,998.72Z" transform="translate(50.97 17.09)"/><path class="cls-9" d="M1804.37,998.72a19.56,19.56,0,0,0,10.8-11.77c1.56-4.2-2.09-9.83-5.51-12.57a38.35,38.35,0,0,0-4.67-3.12c1.29-2.16,1-4.76-.52-7.27a12.6,12.6,0,0,0-2.61-3.06c11.19-3.87,20.49-11,15.74-19.52-3.95-7.08-11.6-11.2-20.26-13.17a30.23,30.23,0,0,0-11.55-.17c2.47-3.55,3.83-7.33,2.79-9.59-1.77-3.85-5.57-5.1-9.7-5,.11-.33.25-.68.36-1,1.55-4.51,1.13-11-3.54-14.18-8.28-5.71-17-2.24-23.8,4.18a30.54,30.54,0,0,0-.21-4.4c-1.3-10.82-17.59-11.88-26.85-8.88a18.35,18.35,0,0,0-6.28,3.56,1.42,1.42,0,0,0-.3.25,28,28,0,0,0-6.82,9.12c-4.52-9.66-13-17.4-24.17-12.87-5.44,2.2-7.58,8.38-7.31,13.07,0,.33.06.71.08,1-4-1-8-.52-10.79,2.88-1.64,2-1.34,5.94.11,9.88a29.45,29.45,0,0,0-11.29-2.16c-9,.17-17.52,2.63-23.28,8.7-6.94,7.34.15,16.16,10,22.17a15,15,0,0,0-3.36,2.43c-2.13,2.15-3.14,4.61-2.48,7a42.57,42.57,0,0,0-5.39,2.09c-4.08,2-9.15,6.72-8.79,11.11.47,5.55,2.8,10.46,7.29,13.64-7.12,3.69-12.08,10.15-11.69,18,.27,5.27,5.11,8.59,10.5,10.15a6.71,6.71,0,0,0-1.24,4.82c.43,3.1,5.46,3,8,2.49h0c-4.31,4-8,8.92-5.35,13.86,3.72,7,13.69,6.42,20.61,3.9-1.79,3.07-2.08,5.92,1,7.73,4.39,2.66,12.08.51,17.2-1.53,2.89,3.24,8.52,5.33,12.44,6a27,27,0,0,0,13.75-1.68,7.75,7.75,0,0,0,3.28,3.11c6,3.29,15.07.38,21.06-2.16a25.31,25.31,0,0,0,15.07,6.16c4,.14,10-.75,13.73-3.31,4.43,3,11.31,6.64,16.32,5,3.44-1.17,3.93-4,3-7.36,6.07,3.85,15.6,6.45,21.12.38,3.91-4.27,1.67-9.77-1.43-14.54h0c2.3,1,7.14,2.1,8.42-.81a6.51,6.51,0,0,0,.1-4.94c5.65-.44,11.29-2.69,13-7.76C1813.36,1011,1810.29,1003.77,1804.37,998.72Zm-24-24.71c5.76,7.2,1.85,15.56-6.27,20-9.23,5-23.16,4.27-31.28-2.11a27.76,27.76,0,0,1-4.16-4c-2.63,5.47-7.57,9.57-15.26,8.21-9.46-1.7-13.62-7.17-14.82-13.69-4.95,7.43-13.39,13.48-22.89,14-6.37.3-13.46-1.17-15.91-6.79-1.13-2.55-.67-5.34.52-7.94-4.44,2.68-9.68,4.23-12.23-.47a3.46,3.46,0,0,1-.41-1.42c-8.77,3.82-18.6,4.85-22.63-4.36-3.37-7.66,4.38-14,13.22-17.25a4.33,4.33,0,0,1-2.5-1.4c-1.62-2.09-.65-4.72,1.25-6.51,2.56-2.4,6.28-3.92,10.22-4.72-8.45-4.72-16.1-12.37-9.62-19.46,7.6-8.32,16.37-6.6,23.28-1.4a7.41,7.41,0,0,1,.66-1.58c2.48-4.37,6.16-3.93,9.36-1.76a19.19,19.19,0,0,1,1.28-12.31c2.74-5.45,10.22-10.07,17.25-6.92,5.88,2.64,8.79,8.54,9.76,15a34,34,0,0,1,10.8-10.86c5.72-3.42,14.8-4.79,19.2,1.09a17.75,17.75,0,0,1,3.26,8.32A10.7,10.7,0,0,1,1750,914c5.17.95,6.31,4.73,5.3,8.51a27.42,27.42,0,0,1,11.64-3c5-.07,10.12,3.2,9.8,7.81-.36,5-3.79,10.38-7.65,14.59,7.71-1.58,17.41-2.26,21.82,3.22,8.33,10.36-5,20.24-15.55,24.72A16.61,16.61,0,0,1,1780.37,974Z" transform="translate(50.97 17.09)"/><path class="cls-9" d="M1804.37,998.72a19.56,19.56,0,0,0,10.8-11.77c1.56-4.2-2.09-9.83-5.51-12.57a31.76,31.76,0,0,0-2.69-1.9c-.51,0-1-.08-1.52-.1,2.69,3.85,4.08,8.18,3,12.9-1.27,5.26-7.17,9.84-12.93,11.5a36.28,36.28,0,0,1-7.78,1.31c4.79,3.22,11.35,8.65,8.77,14.32-2.67,5.89-10.31,6.26-18.13,4.23,1.21,2.78.87,5.39-2.46,7.19-4.87,2.64-10.06-.14-14.47-4a19.84,19.84,0,0,1-.58,5.56,12.48,12.48,0,0,1-11.82,9.41c-12,.08-17.57-8.64-21.23-17.57-.59,5.9-2.63,12.72-9.18,11.5-6.06-1.14-8.61-6.88-9.41-12.79-4.55,6.67-12.52,11.93-19.88,10.73-5.68-.94-8.2-4.66-8.79-9.31a28.9,28.9,0,0,1-9.66,8.06c-4.38,2.1-12.11,2.52-14.3-2.56-1.29-3-.58-6.09,1.09-8.86-4.79,2.64-10.33,4.54-12.64.72-2-3.29-1.41-6.46.44-9.47a26,26,0,0,1-10.67,1c-6.45-1-9-5.27-9.36-10.59-.38-6.06,3.17-11.37,8.36-15.13-.59.21-1.19.39-1.77.6l0,0c-7.12,3.69-12.08,10.15-11.69,18,.27,5.27,5.11,8.59,10.5,10.15a6.71,6.71,0,0,0-1.24,4.82c.43,3.1,5.46,3,8,2.49h0c-4.31,4-8,8.92-5.35,13.86,3.72,7,13.69,6.42,20.61,3.9-1.79,3.07-2.08,5.92,1,7.73,4.39,2.66,12.08.51,17.2-1.53,2.89,3.24,8.52,5.33,12.44,6a27,27,0,0,0,13.75-1.68,7.75,7.75,0,0,0,3.28,3.11c6,3.29,15.07.38,21.06-2.16a25.31,25.31,0,0,0,15.07,6.16c4,.14,10-.75,13.73-3.31,4.43,3,11.31,6.64,16.32,5,3.44-1.17,3.93-4,3-7.36,6.07,3.85,15.6,6.45,21.12.38,3.91-4.27,1.67-9.77-1.43-14.54h0c2.3,1,7.14,2.1,8.42-.81a6.51,6.51,0,0,0,.1-4.94c5.65-.44,11.29-2.69,13-7.76C1813.36,1011,1810.29,1003.77,1804.37,998.72Z" transform="translate(50.97 17.09)"/><path class="cls-10" d="M1665.86,927.6c-.68-2-2.83-3.25-7-2.36-5.29,1.13-9.8,8-6,12.2C1658.1,943.36,1667.44,932.34,1665.86,927.6Z" transform="translate(50.97 17.09)"/><path class="cls-10" d="M1653.39,969.71c-.37-1.09-1.53-1.77-3.78-1.28-2.88.62-5.31,4.32-3.28,6.6C1649.19,978.24,1654.25,972.27,1653.39,969.71Z" transform="translate(50.97 17.09)"/><path class="cls-10" d="M1673.05,1012.73c-.35-1.09-1.51-1.74-3.77-1.26-2.87.59-5.32,4.31-3.28,6.58C1668.86,1021.27,1673.92,1015.3,1673.05,1012.73Z" transform="translate(50.97 17.09)"/><path class="cls-10" d="M1657,1000.83c-.14-.41-.56-.65-1.39-.46-1,.23-1.91,1.57-1.18,2.4C1655.48,1003.94,1657.31,1001.77,1657,1000.83Z" transform="translate(50.97 17.09)"/><path class="cls-10" d="M1707.13,965.13c-6.11-3.45-13.79,4.37-15.33,8.74-2,5.56,2.43,8.8,8.58,6.36C1704.88,978.46,1714,969,1707.13,965.13Z" transform="translate(50.97 17.09)"/><path class="cls-10" d="M1779.59,1007.44c-2.35-1.32-5.31,1.67-5.91,3.35-.75,2.14,1,3.38,3.31,2.45C1778.71,1012.55,1782.21,1008.93,1779.59,1007.44Z" transform="translate(50.97 17.09)"/><path class="cls-10" d="M1764.65,927.78c-4.24-2.38-9.56,3-10.62,6-1.36,3.86,1.69,6.11,5.94,4.41C1763.09,937,1769.38,930.45,1764.65,927.78Z" transform="translate(50.97 17.09)"/><path class="cls-11" d="M1946.45,1023.92a17.53,17.53,0,0,0,9.82-10.28c1.47-3.71-1.65-8.78-4.64-11.25a32.8,32.8,0,0,0-4.09-2.84c1.2-1.89,1-4.21-.31-6.46a11.7,11.7,0,0,0-2.24-2.75c10-3.27,18.4-9.46,14.35-17.1-3.36-6.35-10.07-10.12-17.72-12a26.81,26.81,0,0,0-10.25-.34c2.27-3.11,3.54-6.45,2.66-8.46-1.48-3.45-4.83-4.62-8.51-4.55.11-.31.24-.61.34-.9,1.47-4,1.22-9.7-2.85-12.63-7.24-5.18-15.08-2.25-21.21,3.36a27.43,27.43,0,0,0-.1-3.91c-.94-9.63-15.38-10.81-23.66-8.28a16.66,16.66,0,0,0-5.65,3.06,1.38,1.38,0,0,0-.26.23,24.92,24.92,0,0,0-6.23,8c-3.83-8.64-11.17-15.63-21.21-11.77-4.87,1.86-6.9,7.31-6.75,11.48,0,.3,0,.63.06.93-3.53-.91-7.11-.58-9.64,2.4-1.49,1.74-1.31,5.25-.11,8.77a26.56,26.56,0,0,0-10-2.09c-8,0-15.6,2.07-20.85,7.4-6.3,6.41-.18,14.33,8.41,19.81a13.76,13.76,0,0,0-3,2.11c-2,1.87-2.89,4-2.34,6.16a35.54,35.54,0,0,0-4.84,1.77c-3.66,1.69-8.25,5.84-8,9.74.32,4.93,2.27,9.32,6.21,12.21-6.4,3.18-10.93,8.83-10.75,15.84.14,4.68,4.37,7.69,9.12,9.17A5.9,5.9,0,0,0,1791,1035c.34,2.75,4.79,2.72,7,2.34h0c-3.9,3.49-7.26,7.79-5,12.21,3.16,6.27,12,5.9,18.22,3.77-1.65,2.7-2,5.22.69,6.87,3.85,2.42,10.72.63,15.31-1.09,2.49,2.92,7.45,4.85,10.92,5.5a23.77,23.77,0,0,0,12.23-1.3,6.91,6.91,0,0,0,2.85,2.83c5.3,3,13.38.55,18.74-1.6a22.44,22.44,0,0,0,13.26,5.68c3.53.18,8.93-.53,12.26-2.73,3.87,2.72,9.9,6.06,14.38,4.63,3.08-1,3.56-3.48,2.83-6.47,5.3,3.49,13.71,5.94,18.74.63,3.54-3.72,1.67-8.64-1-12.91h0c2,.89,6.3,2,7.49-.6a5.69,5.69,0,0,0,.18-4.39c5-.31,10.08-2.21,11.69-6.69C1954.19,1035,1951.59,1028.48,1946.45,1023.92Z" transform="translate(50.97 17.09)"/><path class="cls-12" d="M1946.45,1023.92a17.53,17.53,0,0,0,9.82-10.28c1.47-3.71-1.65-8.78-4.64-11.25a32.8,32.8,0,0,0-4.09-2.84c1.2-1.89,1-4.21-.31-6.46a11.7,11.7,0,0,0-2.24-2.75c10-3.27,18.4-9.46,14.35-17.1-3.36-6.35-10.07-10.12-17.72-12a26.81,26.81,0,0,0-10.25-.34c2.27-3.11,3.54-6.45,2.66-8.46-1.48-3.45-4.83-4.62-8.51-4.55.11-.31.24-.61.34-.9,1.47-4,1.22-9.7-2.85-12.63-7.24-5.18-15.08-2.25-21.21,3.36a27.43,27.43,0,0,0-.1-3.91c-.94-9.63-15.38-10.81-23.66-8.28a16.66,16.66,0,0,0-5.65,3.06,1.38,1.38,0,0,0-.26.23,24.92,24.92,0,0,0-6.23,8c-3.83-8.64-11.17-15.63-21.21-11.77-4.87,1.86-6.9,7.31-6.75,11.48,0,.3,0,.63.06.93-3.53-.91-7.11-.58-9.64,2.4-1.49,1.74-1.31,5.25-.11,8.77a26.56,26.56,0,0,0-10-2.09c-8,0-15.6,2.07-20.85,7.4-6.3,6.41-.18,14.33,8.41,19.81a13.76,13.76,0,0,0-3,2.11c-2,1.87-2.89,4-2.34,6.16a35.54,35.54,0,0,0-4.84,1.77c-3.66,1.69-8.25,5.84-8,9.74.32,4.93,2.27,9.32,6.21,12.21-6.4,3.18-10.93,8.83-10.75,15.84.14,4.68,4.37,7.69,9.12,9.17A5.9,5.9,0,0,0,1791,1035c.34,2.75,4.79,2.72,7,2.34h0c-3.9,3.49-7.26,7.79-5,12.21,3.16,6.27,12,5.9,18.22,3.77-1.65,2.7-2,5.22.69,6.87,3.85,2.42,10.72.63,15.31-1.09,2.49,2.92,7.45,4.85,10.92,5.5a23.77,23.77,0,0,0,12.23-1.3,6.91,6.91,0,0,0,2.85,2.83c5.3,3,13.38.55,18.74-1.6a22.44,22.44,0,0,0,13.26,5.68c3.53.18,8.93-.53,12.26-2.73,3.87,2.72,9.9,6.06,14.38,4.63,3.08-1,3.56-3.48,2.83-6.47,5.3,3.49,13.71,5.94,18.74.63,3.54-3.72,1.67-8.64-1-12.91h0c2,.89,6.3,2,7.49-.6a5.69,5.69,0,0,0,.18-4.39c5-.31,10.08-2.21,11.69-6.69C1954.19,1035,1951.59,1028.48,1946.45,1023.92Zm-20.82-22.3c5,6.48,1.34,13.85-6,17.63-8.3,4.32-20.65,3.45-27.73-2.33a24.71,24.71,0,0,1-3.62-3.61c-2.44,4.82-6.91,8.39-13.71,7.07-8.36-1.66-11.93-6.57-12.87-12.37-4.54,6.53-12.16,11.76-20.6,12-5.66.17-11.93-1.24-14-6.27a8.48,8.48,0,0,1,.64-7c-4,2.31-8.69,3.61-10.86-.6a2.86,2.86,0,0,1-.33-1.28c-7.86,3.27-16.6,4-20-4.19-2.84-6.86,4.16-12.37,12.08-15.11a3.91,3.91,0,0,1-2.19-1.28c-1.4-1.89-.48-4.21,1.24-5.78a19,19,0,0,1,9.16-4c-7.4-4.31-14-11.22-8.14-17.42,6.91-7.26,14.65-5.61,20.68-.9a7.29,7.29,0,0,1,.63-1.39c2.28-3.85,5.54-3.4,8.34-1.43a17,17,0,0,1,1.39-10.9c2.53-4.81,9.26-8.78,15.45-5.89,5.16,2.44,7.63,7.71,8.36,13.46a30.57,30.57,0,0,1,9.78-9.47c5.16-3,13.24-4,17,1.24a15.55,15.55,0,0,1,2.72,7.43,9.64,9.64,0,0,1,6.77-1.32c4.58.92,5.51,4.29,4.54,7.64a24.42,24.42,0,0,1,10.39-2.46c4.46,0,8.92,3,8.54,7.07-.42,4.44-3.56,9.17-7.08,12.85,6.89-1.29,15.51-1.75,19.31,3.18,7.18,9.31-4.89,17.89-14.3,21.71A14.56,14.56,0,0,1,1925.63,1001.62Z" transform="translate(50.97 17.09)"/><path class="cls-9" d="M1946.45,1023.92a17.53,17.53,0,0,0,9.82-10.28c1.47-3.71-1.65-8.78-4.64-11.25a24.83,24.83,0,0,0-2.35-1.72l-1.34-.12c2.31,3.47,3.46,7.32,2.35,11.5-1.22,4.66-6.55,8.62-11.71,10a32.47,32.47,0,0,1-6.93,1.05c4.18,2.92,9.9,7.84,7.51,12.85-2.49,5.19-9.29,5.41-16.19,3.47,1,2.5.66,4.81-2.32,6.35-4.38,2.27-8.93-.27-12.77-3.8a17.59,17.59,0,0,1-.62,4.93,11.17,11.17,0,0,1-10.69,8.18c-10.67-.11-15.41-7.93-18.49-15.91-.64,5.23-2.59,11.25-8.38,10.07-5.36-1.1-7.51-6.24-8.09-11.5-4.17,5.86-11.36,10.41-17.87,9.23-5-.91-7.18-4.24-7.6-8.38a26.26,26.26,0,0,1-8.74,7c-3.94,1.81-10.81,2.06-12.65-2.48-1.09-2.67-.39-5.41,1.15-7.85-4.31,2.27-9.26,3.88-11.24.46-1.71-3-1.11-5.76.59-8.39a23.43,23.43,0,0,1-9.5.71c-5.71-1-7.91-4.81-8.1-9.54-.22-5.39,3-10,7.73-13.3-.52.18-1.07.33-1.58.51l0,0c-6.4,3.18-10.93,8.83-10.75,15.84.14,4.68,4.37,7.69,9.12,9.17A5.9,5.9,0,0,0,1791,1035c.34,2.75,4.79,2.72,7,2.34h0c-3.9,3.49-7.26,7.79-5,12.21,3.16,6.27,12,5.9,18.22,3.77-1.65,2.7-2,5.22.69,6.87,3.85,2.42,10.72.63,15.31-1.09,2.49,2.92,7.45,4.85,10.92,5.5a23.77,23.77,0,0,0,12.23-1.3,6.91,6.91,0,0,0,2.85,2.83c5.3,3,13.38.55,18.74-1.6a22.44,22.44,0,0,0,13.26,5.68c3.53.18,8.93-.53,12.26-2.73,3.87,2.72,9.9,6.06,14.38,4.63,3.08-1,3.56-3.48,2.83-6.47,5.3,3.49,13.71,5.94,18.74.63,3.54-3.72,1.67-8.64-1-12.91h0c2,.89,6.3,2,7.49-.6a5.69,5.69,0,0,0,.18-4.39c5-.31,10.08-2.21,11.69-6.69C1954.19,1035,1951.59,1028.48,1946.45,1023.92Z" transform="translate(50.97 17.09)"/><path class="cls-10" d="M1824.91,958.73c-.55-1.79-2.43-2.92-6.15-2.19-4.72.92-8.86,7-5.62,10.74C1817.72,972.62,1826.23,963,1824.91,958.73Z" transform="translate(50.97 17.09)"/><path class="cls-10" d="M1813,995.93c-.31-1-1.33-1.59-3.34-1.2-2.56.51-4.79,3.77-3,5.81C1809.11,1003.44,1813.72,998.22,1813,995.93Z" transform="translate(50.97 17.09)"/><path class="cls-10" d="M1829.6,1034.41c-.29-1-1.31-1.58-3.32-1.18-2.56.5-4.81,3.76-3,5.8C1825.71,1041.93,1830.32,1036.7,1829.6,1034.41Z" transform="translate(50.97 17.09)"/><path class="cls-10" d="M1815.6,1023.61c-.12-.36-.48-.58-1.22-.43-.93.19-1.74,1.37-1.11,2.11C1814.18,1026.34,1815.85,1024.44,1815.6,1023.61Z" transform="translate(50.97 17.09)"/><path class="cls-10" d="M1860.81,992.66c-5.37-3.15-12.33,3.68-13.79,7.52-1.87,4.91,2,7.87,7.48,5.8C1858.54,1004.46,1866.79,996.18,1860.81,992.66Z" transform="translate(50.97 17.09)"/><path class="cls-10" d="M1924.27,1031.29c-2.06-1.2-4.74,1.41-5.31,2.89-.7,1.88.78,3,2.89,2.22C1923.39,1035.81,1926.56,1032.65,1924.27,1031.29Z" transform="translate(50.97 17.09)"/><path class="cls-10" d="M1912.6,960.36c-3.7-2.17-8.54,2.55-9.52,5.2-1.3,3.41,1.36,5.44,5.16,4C1911,968.53,1916.75,962.8,1912.6,960.36Z" transform="translate(50.97 17.09)"/><path class="cls-8" d="M1636.81,1014.18a9.91,9.91,0,0,0,5.48-6c.79-2.11-1-5-2.78-6.36a22,22,0,0,0-2.38-1.6,3.49,3.49,0,0,0-.26-3.68,6.82,6.82,0,0,0-1.31-1.54c5.65-2,10.37-5.58,8-9.9-2-3.6-5.88-5.69-10.29-6.69a15.66,15.66,0,0,0-5.84-.08c1.25-1.8,1.94-3.72,1.4-4.86-.89-2-2.81-2.59-4.91-2.52.06-.17.13-.35.18-.51.78-2.28.58-5.55-1.8-7.19-4.19-2.9-8.63-1.13-12,2.12a17.05,17.05,0,0,0-.12-2.23c-.65-5.49-8.92-6-13.62-4.5a9.71,9.71,0,0,0-3.18,1.8.92.92,0,0,0-.15.14,14.23,14.23,0,0,0-3.46,4.61c-2.3-4.9-6.56-8.82-12.25-6.52-2.76,1.11-3.84,4.25-3.7,6.62a4.73,4.73,0,0,0,0,.53c-2-.47-4.08-.26-5.48,1.47-.83,1-.68,3,0,5a15.32,15.32,0,0,0-5.73-1.11c-4.53.1-8.86,1.34-11.79,4.43-3.52,3.71.07,8.19,5.06,11.23a7.35,7.35,0,0,0-1.72,1.24,3.63,3.63,0,0,0-1.25,3.53,23.46,23.46,0,0,0-2.74,1.06c-2.06,1-4.64,3.41-4.45,5.64a9.1,9.1,0,0,0,3.68,6.92c-3.6,1.87-6.13,5.14-5.92,9.14.14,2.68,2.6,4.36,5.33,5.15a3.34,3.34,0,0,0-.64,2.45c.23,1.56,2.78,1.5,4,1.26h0c-2.18,2-4.06,4.52-2.73,7,1.89,3.56,7,3.24,10.46,2-.9,1.56-1.06,3,.49,3.93,2.23,1.34,6.12.26,8.73-.77,1.46,1.64,4.3,2.7,6.3,3a13.86,13.86,0,0,0,7-.84,4.07,4.07,0,0,0,1.67,1.58c3.05,1.66,7.64.18,10.67-1.1a12.58,12.58,0,0,0,14.61,1.45c2.24,1.51,5.74,3.35,8.27,2.51,1.75-.59,2-2,1.53-3.73,3.07,1.94,7.92,3.27,10.71.19,2-2.17.85-5-.73-7.38h0c1.17.5,3.63,1.07,4.28-.4a3.31,3.31,0,0,0,0-2.51c2.87-.22,5.72-1.36,6.57-3.94C1641.36,1020.42,1639.82,1016.73,1636.81,1014.18Z" transform="translate(50.97 17.09)"/><path class="cls-9" d="M1636.81,1014.18a9.91,9.91,0,0,0,5.48-6c.79-2.11-1-5-2.78-6.36a22,22,0,0,0-2.38-1.6,3.49,3.49,0,0,0-.26-3.68,6.82,6.82,0,0,0-1.31-1.54c5.65-2,10.37-5.58,8-9.9-2-3.6-5.88-5.69-10.29-6.69a15.66,15.66,0,0,0-5.84-.08c1.25-1.8,1.94-3.72,1.4-4.86-.89-2-2.81-2.59-4.91-2.52.06-.17.13-.35.18-.51.78-2.28.58-5.55-1.8-7.19-4.19-2.9-8.63-1.13-12,2.12a17.05,17.05,0,0,0-.12-2.23c-.65-5.49-8.92-6-13.62-4.5a9.71,9.71,0,0,0-3.18,1.8.92.92,0,0,0-.15.14,14.23,14.23,0,0,0-3.46,4.61c-2.3-4.9-6.56-8.82-12.25-6.52-2.76,1.11-3.84,4.25-3.7,6.62a4.73,4.73,0,0,0,0,.53c-2-.47-4.08-.26-5.48,1.47-.83,1-.68,3,0,5a15.32,15.32,0,0,0-5.73-1.11c-4.53.1-8.86,1.34-11.79,4.43-3.52,3.71.07,8.19,5.06,11.23a7.35,7.35,0,0,0-1.72,1.24,3.63,3.63,0,0,0-1.25,3.53,23.46,23.46,0,0,0-2.74,1.06c-2.06,1-4.64,3.41-4.45,5.64a9.1,9.1,0,0,0,3.68,6.92c-3.6,1.87-6.13,5.14-5.92,9.14.14,2.68,2.6,4.36,5.33,5.15a3.34,3.34,0,0,0-.64,2.45c.23,1.56,2.78,1.5,4,1.26h0c-2.18,2-4.06,4.52-2.73,7,1.89,3.56,7,3.24,10.46,2-.9,1.56-1.06,3,.49,3.93,2.23,1.34,6.12.26,8.73-.77,1.46,1.64,4.3,2.7,6.3,3a13.86,13.86,0,0,0,7-.84,4.07,4.07,0,0,0,1.67,1.58c3.05,1.66,7.64.18,10.67-1.1a12.58,12.58,0,0,0,14.61,1.45c2.24,1.51,5.74,3.35,8.27,2.51,1.75-.59,2-2,1.53-3.73,3.07,1.94,7.92,3.27,10.71.19,2-2.17.85-5-.73-7.38h0c1.17.5,3.63,1.07,4.28-.4a3.31,3.31,0,0,0,0-2.51c2.87-.22,5.72-1.36,6.57-3.94C1641.36,1020.42,1639.82,1016.73,1636.81,1014.18Zm-12.16-12.55c2.91,3.66.93,7.91-3.18,10.13-4.69,2.55-11.74,2.16-15.88-1.07a13.43,13.43,0,0,1-2.09-2c-1.33,2.78-3.85,4.87-7.74,4.17-4.8-.87-6.91-3.63-7.51-7-2.52,3.78-6.8,6.85-11.61,7.08-3.24.15-6.83-.59-8.07-3.44a4.78,4.78,0,0,1,.26-4c-2.24,1.34-4.9,2.14-6.21-.24a2.14,2.14,0,0,1-.2-.74c-4.45,1.94-9.42,2.48-11.47-2.2-1.71-3.88,2.22-7.1,6.7-8.74a2.18,2.18,0,0,1-1.26-.71c-.84-1.06-.34-2.4.63-3.3a10.69,10.69,0,0,1,5.18-2.4c-4.29-2.39-8.16-6.27-4.87-9.87,3.84-4.2,8.29-3.34,11.79-.71a5.2,5.2,0,0,1,.34-.8c1.25-2.22,3.13-2,4.74-.89a9.75,9.75,0,0,1,.66-6.24c1.38-2.77,5.18-5.11,8.74-3.51,3,1.35,4.46,4.33,5,7.61a17.24,17.24,0,0,1,5.47-5.51c2.9-1.74,7.52-2.44,9.75.54a9.38,9.38,0,0,1,1.65,4.22,5.45,5.45,0,0,1,3.84-.81c2.64.48,3.21,2.39,2.7,4.32a13.75,13.75,0,0,1,5.9-1.5c2.54,0,5.13,1.62,5,4-.17,2.54-1.92,5.26-3.88,7.4,3.92-.8,8.83-1.15,11.07,1.63,4.23,5.26-2.56,10.27-7.89,12.54A8.5,8.5,0,0,1,1624.65,1001.63Z" transform="translate(50.97 17.09)"/><path class="cls-9" d="M1636.81,1014.18a9.91,9.91,0,0,0,5.48-6c.79-2.11-1-5-2.78-6.36-.45-.35-.91-.67-1.38-1-.25,0-.52,0-.77,0a7.9,7.9,0,0,1,1.5,6.53c-.64,2.67-3.64,5-6.56,5.83a19.09,19.09,0,0,1-4,.67c2.43,1.63,5.76,4.39,4.45,7.26s-5.22,3.17-9.19,2.14a2.55,2.55,0,0,1-1.25,3.65c-2.47,1.34-5.09-.07-7.33-2.06a9.92,9.92,0,0,1-.31,2.83,6.3,6.3,0,0,1-6,4.78c-6.11,0-8.92-4.38-10.77-8.92-.31,3-1.35,6.45-4.66,5.83-3.07-.58-4.36-3.49-4.77-6.48-2.31,3.39-6.35,6.05-10.08,5.44a5,5,0,0,1-4.46-4.73,14.42,14.42,0,0,1-4.89,4.09c-2.24,1.06-6.15,1.29-7.25-1.29a4.81,4.81,0,0,1,.55-4.5c-2.45,1.34-5.24,2.3-6.41.38a4.28,4.28,0,0,1,.22-4.81,13.11,13.11,0,0,1-5.42.5c-3.27-.5-4.58-2.67-4.75-5.36-.19-3.08,1.62-5.78,4.24-7.67-.29.1-.6.18-.89.3v0c-3.6,1.87-6.13,5.14-5.92,9.14.14,2.68,2.6,4.36,5.33,5.15a3.34,3.34,0,0,0-.64,2.45c.23,1.56,2.78,1.5,4,1.26h0c-2.18,2-4.06,4.52-2.73,7,1.89,3.56,7,3.24,10.46,2-.9,1.56-1.06,3,.49,3.93,2.23,1.34,6.12.26,8.73-.77,1.46,1.64,4.3,2.7,6.3,3a13.86,13.86,0,0,0,7-.84,4.07,4.07,0,0,0,1.67,1.58c3.05,1.66,7.64.18,10.67-1.1a12.58,12.58,0,0,0,14.61,1.45c2.24,1.51,5.74,3.35,8.27,2.51,1.75-.59,2-2,1.53-3.73,3.07,1.94,7.92,3.27,10.71.19,2-2.17.85-5-.73-7.38h0c1.17.5,3.63,1.07,4.28-.4a3.31,3.31,0,0,0,0-2.51c2.87-.22,5.72-1.36,6.57-3.94C1641.36,1020.42,1639.82,1016.73,1636.81,1014.18Z" transform="translate(50.97 17.09)"/><path class="cls-10" d="M1566.58,978.1c-.34-1-1.44-1.65-3.55-1.2-2.69.57-5,4.06-3.07,6.19C1562.65,986.1,1567.39,980.51,1566.58,978.1Z" transform="translate(50.97 17.09)"/><path class="cls-10" d="M1560.26,999.46c-.19-.55-.78-.89-1.92-.65-1.46.32-2.7,2.18-1.67,3.35C1558.12,1003.78,1560.69,1000.75,1560.26,999.46Z" transform="translate(50.97 17.09)"/><path class="cls-10" d="M1570.24,1021.27c-.2-.55-.78-.88-1.93-.65-1.45.31-2.7,2.2-1.66,3.35C1568.11,1025.6,1570.67,1022.56,1570.24,1021.27Z" transform="translate(50.97 17.09)"/><path class="cls-10" d="M1562.08,1015.24c0-.2-.27-.33-.69-.23s-1,.8-.6,1.21C1561.32,1016.81,1562.26,1015.71,1562.08,1015.24Z" transform="translate(50.97 17.09)"/><path class="cls-10" d="M1587.51,997.13c-3.1-1.75-7,2.22-7.77,4.44-1,2.82,1.23,4.45,4.34,3.23C1586.36,1003.9,1591,999.08,1587.51,997.13Z" transform="translate(50.97 17.09)"/><path class="cls-10" d="M1624.25,1018.58c-1.2-.66-2.69.86-3,1.7-.38,1.1.48,1.72,1.66,1.25C1623.81,1021.18,1625.57,1019.35,1624.25,1018.58Z" transform="translate(50.97 17.09)"/><path class="cls-10" d="M1616.68,978.2c-2.15-1.21-4.84,1.53-5.39,3.06-.69,2,.86,3.09,3,2.25C1615.88,982.88,1619.07,979.54,1616.68,978.2Z" transform="translate(50.97 17.09)"/><path class="cls-8" d="M167.48,1013.48c1.48,5.12,7,7.54,12.64,8.17a6.51,6.51,0,0,0-.12,4.95c1.15,2.94,6,2,8.37,1.08h0c-3.29,4.66-5.77,10.08-2.06,14.49,5.25,6.22,14.89,3.94,21.12.3-1.06,3.32-.69,6.16,2.7,7.44,4.92,1.84,12-1.58,16.51-4.43,3.58,2.68,9.58,3.77,13.58,3.76a25.7,25.7,0,0,0,15.34-5.66c5.86,2.72,14.77,5.93,20.94,2.83a7.77,7.77,0,0,0,3.42-3,26.92,26.92,0,0,0,13.66,2.12c3.95-.54,9.66-2.44,12.7-5.58,5,2.19,12.62,4.59,17.11,2.09,3.14-1.72,3-4.58,1.3-7.71,6.81,2.74,16.76,3.65,20.77-3.23,2.85-4.84-.6-9.85-4.74-14h0c2.48.56,7.5.84,8.07-2.23a6.61,6.61,0,0,0-1-4.86c5.45-1.39,10.44-4.55,10.94-9.81.73-7.87-3.94-14.48-10.9-18.4,4.64-3,7.17-7.86,7.89-13.39.55-4.38-4.31-9.29-8.29-11.38a38.47,38.47,0,0,0-5.31-2.26c.78-2.35-.13-4.85-2.17-7.07a14.3,14.3,0,0,0-3.25-2.53c10.07-5.69,17.55-14.26,10.92-21.82-5.49-6.27-13.93-9-22.88-9.46a30,30,0,0,0-11.37,1.79c1.61-3.89,2.09-7.84.54-9.87-2.63-3.49-6.63-4.06-10.66-3.23,0-.34.1-.71.13-1,.48-4.68-1.4-10.93-6.74-13.29-11-4.9-19.77,2.56-24.71,12.08a27.57,27.57,0,0,0-6.42-9.35,1.69,1.69,0,0,0-.28-.26,18.33,18.33,0,0,0-6.12-3.76c-9.12-3.29-25.45-2.77-27.23,8a30.28,30.28,0,0,0-.4,4.38c-6.47-6.64-15.07-10.37-23.6-4.94-4.8,3.08-5.5,9.49-4.15,14.05.1.33.21.67.32,1-4.14-.27-8,.85-9.92,4.64-1.14,2.22.05,6,2.37,9.67a30.41,30.41,0,0,0-11.55-.19c-8.74,1.68-16.57,5.54-20.83,12.5-5.12,8.36,3.86,15.8,14.87,20a13,13,0,0,0-2.73,3c-1.61,2.46-2,5-.83,7.24a39.73,39.73,0,0,0-4.82,3c-3.54,2.62-7.42,8.15-6.05,12.4a19.22,19.22,0,0,0,10.28,12.1C168.67,998.64,165.28,1005.81,167.48,1013.48Z" transform="translate(50.97 17.09)"/><path class="cls-9" d="M167.48,1013.48c1.48,5.12,7,7.54,12.64,8.17a6.51,6.51,0,0,0-.12,4.95c1.15,2.94,6,2,8.37,1.08h0c-3.29,4.66-5.77,10.08-2.06,14.49,5.25,6.22,14.89,3.94,21.12.3-1.06,3.32-.69,6.16,2.7,7.44,4.92,1.84,12-1.58,16.51-4.43,3.58,2.68,9.58,3.77,13.58,3.76a25.7,25.7,0,0,0,15.34-5.66c5.86,2.72,14.77,5.93,20.94,2.83a7.77,7.77,0,0,0,3.42-3,26.92,26.92,0,0,0,13.66,2.12c3.95-.54,9.66-2.44,12.7-5.58,5,2.19,12.62,4.59,17.11,2.09,3.14-1.72,3-4.58,1.3-7.71,6.81,2.74,16.76,3.65,20.77-3.23,2.85-4.84-.6-9.85-4.74-14h0c2.48.56,7.5.84,8.07-2.23a6.61,6.61,0,0,0-1-4.86c5.45-1.39,10.44-4.55,10.94-9.81.73-7.87-3.94-14.48-10.9-18.4,4.64-3,7.17-7.86,7.89-13.39.55-4.38-4.31-9.29-8.29-11.38a38.47,38.47,0,0,0-5.31-2.26c.78-2.35-.13-4.85-2.17-7.07a14.3,14.3,0,0,0-3.25-2.53c10.07-5.69,17.55-14.26,10.92-21.82-5.49-6.27-13.93-9-22.88-9.46a30,30,0,0,0-11.37,1.79c1.61-3.89,2.09-7.84.54-9.87-2.63-3.49-6.63-4.06-10.66-3.23,0-.34.1-.71.13-1,.48-4.68-1.4-10.93-6.74-13.29-11-4.9-19.77,2.56-24.71,12.08a27.57,27.57,0,0,0-6.42-9.35,1.69,1.69,0,0,0-.28-.26,18.33,18.33,0,0,0-6.12-3.76c-9.12-3.29-25.45-2.77-27.23,8a30.28,30.28,0,0,0-.4,4.38c-6.47-6.64-15.07-10.37-23.6-4.94-4.8,3.08-5.5,9.49-4.15,14.05.1.33.21.67.32,1-4.14-.27-8,.85-9.92,4.64-1.14,2.22.05,6,2.37,9.67a30.41,30.41,0,0,0-11.55-.19c-8.74,1.68-16.57,5.54-20.83,12.5-5.12,8.36,3.86,15.8,14.87,20a13,13,0,0,0-2.73,3c-1.61,2.46-2,5-.83,7.24a39.73,39.73,0,0,0-4.82,3c-3.54,2.62-7.42,8.15-6.05,12.4a19.22,19.22,0,0,0,10.28,12.1C168.67,998.64,165.28,1005.81,167.48,1013.48ZM205,965.9c-10.3-4.82-23.23-15.13-14.46-25.21,4.65-5.33,14.31-4.34,21.95-2.51-3.67-4.33-6.87-9.82-7-14.83-.12-4.62,5.12-7.72,10.13-7.48a27.17,27.17,0,0,1,11.5,3.33c-.84-3.81.46-7.56,5.67-8.34a10.7,10.7,0,0,1,7.51,1.87,18.06,18.06,0,0,1,3.62-8.2c4.67-5.74,13.67-4.08,19.25-.47a33.62,33.62,0,0,1,10.31,11.2c1.24-6.43,4.41-12.22,10.4-14.68,7.17-2.91,14.44,1.93,16.94,7.48a19.14,19.14,0,0,1,.75,12.34c3.27-2.06,7-2.38,9.27,2.06a8.23,8.23,0,0,1,.59,1.6c7.13-5,16-6.39,23.2,2.16,6.16,7.3-1.82,14.69-10.47,19.13,3.91.93,7.55,2.57,10,5,1.82,1.85,2.67,4.5,1,6.55a4.4,4.4,0,0,1-2.57,1.32c8.7,3.51,16.16,10.11,12.46,17.66-4.44,9.08-14.22,7.72-22.8,3.61a3.56,3.56,0,0,1-.48,1.44c-2.75,4.6-7.92,2.88-12.24.06a9.57,9.57,0,0,1,.18,8c-2.7,5.53-9.85,6.77-16.21,6.27-9.47-.78-17.64-7.1-22.26-14.69-1.48,6.49-5.88,11.82-15.41,13.2-7.74,1.12-12.5-3.14-14.88-8.69a29.06,29.06,0,0,1-4.34,3.85c-8.39,6.11-22.34,6.41-31.35,1.1-7.92-4.67-11.45-13.15-5.39-20.16A17.29,17.29,0,0,1,205,965.9Z" transform="translate(50.97 17.09)"/><path class="cls-9" d="M174.81,993.79a19.22,19.22,0,0,1-10.28-12.1c-1.37-4.25,2.51-9.78,6.05-12.4.9-.65,1.82-1.25,2.77-1.81.52,0,1-.05,1.53-.05-2.87,3.77-4.44,8.05-3.52,12.79,1,5.31,6.74,10.07,12.43,11.92a35.74,35.74,0,0,0,7.71,1.55c-4.92,3.07-11.72,8.28-9.4,14,2.41,6,10,6.61,17.94,4.82-1.32,2.73-1.1,5.36,2.15,7.27,4.74,2.79,10.05.18,14.63-3.58a19.59,19.59,0,0,0,.34,5.58,12.29,12.29,0,0,0,11.4,9.79c12,.46,17.93-8.07,22-16.88.32,5.92,2.06,12.81,8.67,11.79,6.11-.94,8.9-6.59,9.95-12.47,4.25,6.81,12,12.32,19.4,11.36,5.72-.75,8.4-4.38,9.18-9a28.64,28.64,0,0,0,9.31,8.36c4.28,2.24,12,2.92,14.4-2.09,1.43-2.95.86-6.06-.69-8.9,4.67,2.8,10.12,4.88,12.59,1.14,2.14-3.22,1.69-6.41,0-9.47a26.09,26.09,0,0,0,10.62,1.34c6.49-.78,9.24-5,9.81-10.29.66-6-2.67-11.46-7.68-15.37.57.23,1.17.41,1.73.65,0,0,0,0,0,0,7,3.92,11.63,10.53,10.9,18.4-.5,5.26-5.49,8.42-10.94,9.81a6.61,6.61,0,0,1,1,4.86c-.57,3.07-5.59,2.79-8.07,2.23h0c4.14,4.16,7.59,9.17,4.74,14-4,6.88-14,6-20.77,3.23,1.66,3.13,1.84,6-1.3,7.71-4.49,2.5-12.08.1-17.11-2.09-3,3.14-8.75,5-12.7,5.58a26.92,26.92,0,0,1-13.66-2.12,7.77,7.77,0,0,1-3.42,3c-6.17,3.1-15.08-.11-20.94-2.83a25.7,25.7,0,0,1-15.34,5.66c-4,0-10-1.08-13.58-3.76-4.56,2.85-11.59,6.27-16.51,4.43-3.39-1.28-3.76-4.12-2.7-7.44-6.23,3.64-15.87,5.92-21.12-.3-3.71-4.41-1.23-9.83,2.06-14.49h0c-2.33.89-7.22,1.86-8.37-1.08a6.51,6.51,0,0,1,.12-4.95c-5.63-.63-11.16-3-12.64-8.17C165.28,1005.81,168.67,998.64,174.81,993.79Z" transform="translate(50.97 17.09)"/><path class="cls-10" d="M316.34,927.2c.76-2,3-3.14,7.1-2.11,5.23,1.28,9.44,8.29,5.5,12.37C323.39,943.22,314.54,931.89,316.34,927.2Z" transform="translate(50.97 17.09)"/><path class="cls-10" d="M327,969.69c.42-1.08,1.61-1.71,3.84-1.16,2.85.72,5.11,4.5,3,6.69C330.78,978.35,326,972.22,327,969.69Z" transform="translate(50.97 17.09)"/><path class="cls-10" d="M305.41,1012.05c.4-1.09,1.59-1.71,3.83-1.15,2.84.69,5.12,4.48,3,6.69C309.23,1020.72,304.44,1014.59,305.41,1012.05Z" transform="translate(50.97 17.09)"/><path class="cls-10" d="M322,1000.67c.16-.4.58-.62,1.4-.41,1,.26,1.85,1.63,1.08,2.43C323.36,1003.82,321.62,1001.59,322,1000.67Z" transform="translate(50.97 17.09)"/><path class="cls-10" d="M273.45,963.37c6.25-3.24,13.59,4.82,14.94,9.23,1.73,5.63-2.82,8.73-8.86,6.09C275.12,976.77,266.45,967,273.45,963.37Z" transform="translate(50.97 17.09)"/><path class="cls-10" d="M199.19,1003.31c2.4-1.24,5.23,1.84,5.75,3.54.66,2.15-1.1,3.35-3.4,2.34C199.84,1008.44,196.51,1004.71,199.19,1003.31Z" transform="translate(50.97 17.09)"/><path class="cls-10" d="M217.6,924.19c4.35-2.25,9.42,3.33,10.34,6.38,1.2,3.89-1.95,6-6.11,4.21C218.76,933.46,212.76,926.7,217.6,924.19Z" transform="translate(50.97 17.09)"/><path class="cls-11" d="M25.62,1032C27,1036.47,32,1038.54,37,1039a5.83,5.83,0,0,0,0,4.4c1.08,2.6,5.4,1.66,7.46.84h0c-2.84,4.18-4.92,9-1.55,12.87,4.79,5.47,13.31,3.3,18.75,0-.87,3-.48,5.48,2.55,6.55,4.41,1.57,10.58-1.57,14.58-4.16,3.23,2.31,8.58,3.2,12.12,3.12a22.61,22.61,0,0,0,13.5-5.25c5.26,2.34,13.23,5.05,18.66,2.21a7,7,0,0,0,3-2.72,23.84,23.84,0,0,0,12.16,1.69c3.49-.54,8.54-2.31,11.15-5.15,4.52,1.87,11.3,3.89,15.26,1.6,2.73-1.57,2.51-4.1,1-6.86,6.09,2.33,14.94,3,18.36-3.18,2.44-4.34-.73-8.73-4.48-12.36h0c2.21.46,6.67.64,7.12-2.1a5.93,5.93,0,0,0-1-4.29c4.8-1.32,9.17-4.2,9.5-8.87.5-7-3.78-12.8-10-16.18,4.06-2.76,6.22-7.07,6.74-12,.39-3.89-4-8.17-7.59-10a34,34,0,0,0-4.75-1.93c.64-2.09-.21-4.3-2.08-6.23a13,13,0,0,0-2.93-2.21c8.83-5.2,15.29-12.92,9.27-19.53-5-5.48-12.56-7.78-20.5-8.06A26.43,26.43,0,0,0,153.13,943c1.36-3.48,1.69-7,.29-8.77-2.4-3.05-6-3.5-9.54-2.71,0-.3.08-.63.1-.91.33-4.18-1.46-9.7-6.24-11.71-9.86-4.18-17.5,2.57-21.7,11.08a24.74,24.74,0,0,0-5.87-8.19l-.27-.24a16.56,16.56,0,0,0-5.5-3.24c-8.17-2.79-22.65-2.08-24,7.5a29.36,29.36,0,0,0-.26,3.91c-5.89-5.8-13.59-9-21.05-4-4.2,2.79-4.7,8.5-3.4,12.53l.29.9c-3.67-.19-7.06.87-8.7,4.26-1,2,.16,5.37,2.29,8.55a27,27,0,0,0-10.26,0c-7.71,1.62-14.59,5.17-18.23,11.4-4.38,7.51,3.74,14,13.6,17.56a11.51,11.51,0,0,0-2.37,2.67c-1.38,2.2-1.71,4.52-.58,6.45a33.31,33.31,0,0,0-4.23,2.7c-3.08,2.38-6.42,7.35-5.12,11.09a17.22,17.22,0,0,0,9.37,10.6C26.38,1018.76,23.51,1025.18,25.62,1032Z" transform="translate(50.97 17.09)"/><path class="cls-12" d="M25.62,1032C27,1036.47,32,1038.54,37,1039a5.83,5.83,0,0,0,0,4.4c1.08,2.6,5.4,1.66,7.46.84h0c-2.84,4.18-4.92,9-1.55,12.87,4.79,5.47,13.31,3.3,18.75,0-.87,3-.48,5.48,2.55,6.55,4.41,1.57,10.58-1.57,14.58-4.16,3.23,2.31,8.58,3.2,12.12,3.12a22.61,22.61,0,0,0,13.5-5.25c5.26,2.34,13.23,5.05,18.66,2.21a7,7,0,0,0,3-2.72,23.84,23.84,0,0,0,12.16,1.69c3.49-.54,8.54-2.31,11.15-5.15,4.52,1.87,11.3,3.89,15.26,1.6,2.73-1.57,2.51-4.1,1-6.86,6.09,2.33,14.94,3,18.36-3.18,2.44-4.34-.73-8.73-4.48-12.36h0c2.21.46,6.67.64,7.12-2.1a5.93,5.93,0,0,0-1-4.29c4.8-1.32,9.17-4.2,9.5-8.87.5-7-3.78-12.8-10-16.18,4.06-2.76,6.22-7.07,6.74-12,.39-3.89-4-8.17-7.59-10a34,34,0,0,0-4.75-1.93c.64-2.09-.21-4.3-2.08-6.23a13,13,0,0,0-2.93-2.21c8.83-5.2,15.29-12.92,9.27-19.53-5-5.48-12.56-7.78-20.5-8.06A26.43,26.43,0,0,0,153.13,943c1.36-3.48,1.69-7,.29-8.77-2.4-3.05-6-3.5-9.54-2.71,0-.3.08-.63.1-.91.33-4.18-1.46-9.7-6.24-11.71-9.86-4.18-17.5,2.57-21.7,11.08a24.74,24.74,0,0,0-5.87-8.19l-.27-.24a16.56,16.56,0,0,0-5.5-3.24c-8.17-2.79-22.65-2.08-24,7.5a29.36,29.36,0,0,0-.26,3.91c-5.89-5.8-13.59-9-21.05-4-4.2,2.79-4.7,8.5-3.4,12.53l.29.9c-3.67-.19-7.06.87-8.7,4.26-1,2,.16,5.37,2.29,8.55a27,27,0,0,0-10.26,0c-7.71,1.62-14.59,5.17-18.23,11.4-4.38,7.51,3.74,14,13.6,17.56a11.51,11.51,0,0,0-2.37,2.67c-1.38,2.2-1.71,4.52-.58,6.45a33.31,33.31,0,0,0-4.23,2.7c-3.08,2.38-6.42,7.35-5.12,11.09a17.22,17.22,0,0,0,9.37,10.6C26.38,1018.76,23.51,1025.18,25.62,1032ZM58,989.16C48.75,985,37.06,976.08,44.64,967c4-4.8,12.62-4,19.44-2.54-3.35-3.79-6.29-8.62-6.52-13.07-.19-4.09,4.4-6.92,8.84-6.78a24.18,24.18,0,0,1,10.29,2.78c-.83-3.37.27-6.71,4.86-7.48a9.52,9.52,0,0,1,6.71,1.54,15.82,15.82,0,0,1,3-7.33c4-5.16,12.06-3.82,17.08-.7a30.06,30.06,0,0,1,9.37,9.79c1-5.73,3.67-10.91,8.94-13.19,6.3-2.69,12.86,1.51,15.18,6.39a16.92,16.92,0,0,1,.91,10.94c2.87-1.87,6.15-2.22,8.28,1.69a7.78,7.78,0,0,1,.55,1.41c6.24-4.51,14-5.9,20.64,1.58,5.63,6.39-1.32,13.07-8.9,17.14a18.67,18.67,0,0,1,9,4.32c1.65,1.62,2.47,4,1,5.82a3.8,3.8,0,0,1-2.24,1.19c7.78,3,14.54,8.74,11.41,15.5-3.76,8.13-12.46,7.06-20.17,3.56a3.1,3.1,0,0,1-.4,1.26c-2.34,4.13-7,2.68-10.86.25a8.44,8.44,0,0,1,.31,7c-2.28,5-8.6,6.16-14.26,5.81-8.41-.55-15.79-6-20-12.7-1.2,5.77-5,10.56-13.42,11.95-6.85,1.09-11.16-2.61-13.39-7.5a24.77,24.77,0,0,1-3.77,3.48c-7.32,5.54-19.71,6-27.81,1.43-7.12-4-10.42-11.5-5.18-17.81A15,15,0,0,1,58,989.16Z" transform="translate(50.97 17.09)"/><path class="cls-9" d="M31.73,1014.37a17.22,17.22,0,0,1-9.37-10.6c-1.3-3.74,2-8.71,5.12-11.09A26.51,26.51,0,0,1,29.91,991c.45,0,.9-.06,1.36-.07-2.48,3.39-3.79,7.21-2.87,11.4,1,4.69,6.18,8.84,11.27,10.39a31.58,31.58,0,0,0,6.87,1.27c-4.3,2.8-10.23,7.52-8.06,12.6,2.27,5.27,9,5.71,16,4-1.12,2.45-.88,4.77,2,6.4,4.29,2.42,8.93,0,12.93-3.37a17.7,17.7,0,0,0,.41,4.94,11,11,0,0,0,10.31,8.52c10.68.24,15.76-7.42,19.18-15.3.41,5.24,2.1,11.33,7.93,10.34,5.41-.93,7.78-6,8.6-11.22,3.9,6,10.89,10.77,17.44,9.79,5.06-.74,7.37-4,8-8.14a25.45,25.45,0,0,0,8.44,7.29c3.84,1.93,10.7,2.41,12.74-2.06,1.2-2.65.63-5.4-.8-7.89,4.2,2.41,9.08,4.18,11.2.82,1.83-2.89,1.37-5.71-.21-8.41a23.07,23.07,0,0,0,9.46,1c5.74-.78,8.11-4.55,8.5-9.28.46-5.37-2.6-10.13-7.13-13.53.51.19,1.05.36,1.56.55l0,0c6.26,3.38,10.54,9.18,10,16.18-.33,4.67-4.7,7.55-9.5,8.87a5.93,5.93,0,0,1,1,4.29c-.45,2.74-4.91,2.56-7.12,2.1h0c3.75,3.63,6.92,8,4.48,12.36-3.42,6.18-12.27,5.51-18.36,3.18,1.52,2.76,1.74,5.29-1,6.86-4,2.29-10.74.27-15.26-1.6-2.61,2.84-7.66,4.61-11.15,5.15a23.84,23.84,0,0,1-12.16-1.69,7,7,0,0,1-3,2.72c-5.43,2.84-13.4.13-18.66-2.21a22.61,22.61,0,0,1-13.5,5.25c-3.54.08-8.89-.81-12.12-3.12-4,2.59-10.17,5.73-14.58,4.16-3-1.07-3.42-3.59-2.55-6.55-5.44,3.32-14,5.49-18.75,0-3.37-3.84-1.29-8.69,1.55-12.87h0c-2.06.82-6.38,1.76-7.46-.84a5.83,5.83,0,0,1,0-4.4c-5-.47-10-2.54-11.38-7.06C23.51,1025.18,26.38,1018.76,31.73,1014.37Z" transform="translate(50.97 17.09)"/><path class="cls-10" d="M156,953.17c.63-1.78,2.56-2.85,6.25-2,4.67,1.07,8.55,7.22,5.14,10.9C162.61,967.27,154.52,957.35,156,953.17Z" transform="translate(50.97 17.09)"/><path class="cls-10" d="M166.3,990.72c.34-1,1.39-1.55,3.38-1.09,2.54.6,4.63,3.92,2.79,5.91C169.86,998.35,165.48,993,166.3,990.72Z" transform="translate(50.97 17.09)"/><path class="cls-10" d="M148,1028.63c.35-1,1.38-1.52,3.38-1.07,2.53.58,4.64,3.9,2.79,5.9C151.59,1036.27,147.21,1030.91,148,1028.63Z" transform="translate(50.97 17.09)"/><path class="cls-10" d="M162.49,1018.3c.13-.36.51-.56,1.24-.39.92.21,1.68,1.42,1,2.14C163.79,1021.07,162.2,1019.12,162.49,1018.3Z" transform="translate(50.97 17.09)"/><path class="cls-10" d="M118.68,985.91c5.49-3,12.15,4.07,13.44,8,1.65,5-2.32,7.78-7.73,5.53C120.42,997.77,112.54,989.23,118.68,985.91Z" transform="translate(50.97 17.09)"/><path class="cls-10" d="M53.56,1022.45c2.11-1.13,4.68,1.56,5.18,3.06.63,1.91-.9,3-3,2.13C54.24,1027,51.21,1023.73,53.56,1022.45Z" transform="translate(50.97 17.09)"/><path class="cls-10" d="M68.32,952c3.81-2.06,8.43,2.82,9.31,5.51,1.14,3.44-1.61,5.39-5.34,3.83C69.54,960.16,64.08,954.25,68.32,952Z" transform="translate(50.97 17.09)"/><path class="cls-8" d="M337.85,1024.64c.75,2.59,3.55,3.83,6.4,4.14a3.3,3.3,0,0,0-.05,2.51c.58,1.49,3.06,1,4.25.55h0c-1.67,2.36-2.93,5.11-1,7.35,2.66,3.15,7.55,2,10.69.15-.53,1.69-.34,3.13,1.37,3.77,2.5.93,6.07-.8,8.38-2.23a12.7,12.7,0,0,0,6.89,1.89,13,13,0,0,0,7.77-2.87c3,1.38,7.49,3,10.62,1.44a4.15,4.15,0,0,0,1.74-1.53,13.79,13.79,0,0,0,6.93,1.09c2-.28,4.9-1.25,6.42-2.83,2.57,1.11,6.4,2.31,8.69,1,1.58-.86,1.5-2.31.66-3.9,3.46,1.38,8.49,1.85,10.54-1.63,1.43-2.47-.32-5-2.42-7.11h0c1.24.28,3.79.42,4.08-1.12a3.29,3.29,0,0,0-.53-2.47c2.76-.71,5.3-2.32,5.55-5,.38-4-2-7.33-5.52-9.33a9.25,9.25,0,0,0,4-6.79c.27-2.22-2.19-4.7-4.21-5.78a22,22,0,0,0-2.69-1.15,3.62,3.62,0,0,0-1.1-3.57,7.21,7.21,0,0,0-1.66-1.29c5.12-2.88,8.9-7.24,5.55-11-2.79-3.19-7.08-4.57-11.6-4.81a15.49,15.49,0,0,0-5.77.91c.82-2,1.06-4,.28-5-1.33-1.78-3.36-2-5.4-1.64,0-.17,0-.36.05-.53.24-2.37-.71-5.54-3.42-6.73-5.57-2.49-10,1.29-12.52,6.11a13.89,13.89,0,0,0-3.25-4.72,2.11,2.11,0,0,0-.15-.15,9.83,9.83,0,0,0-3.09-1.91c-4.63-1.67-12.92-1.39-13.81,4.07a13.61,13.61,0,0,0-.21,2.22c-3.29-3.36-7.64-5.26-12-2.5-2.45,1.56-2.79,4.81-2.12,7.12l.17.51c-2.1-.13-4.05.45-5,2.37-.58,1.13,0,3.06,1.19,4.9a15.19,15.19,0,0,0-5.85-.1c-4.43.85-8.4,2.82-10.56,6.33-2.59,4.24,2,8,7.53,10.15a7.29,7.29,0,0,0-1.38,1.51,3.46,3.46,0,0,0-.41,3.67,21.2,21.2,0,0,0-2.45,1.51c-1.8,1.34-3.77,4.13-3.06,6.28a9.77,9.77,0,0,0,5.21,6.16C338.45,1017.11,336.74,1020.75,337.85,1024.64Z" transform="translate(50.97 17.09)"/><path class="cls-9" d="M337.85,1024.64c.75,2.59,3.55,3.83,6.4,4.14a3.3,3.3,0,0,0-.05,2.51c.58,1.49,3.06,1,4.25.55h0c-1.67,2.36-2.93,5.11-1,7.35,2.66,3.15,7.55,2,10.69.15-.53,1.69-.34,3.13,1.37,3.77,2.5.93,6.07-.8,8.38-2.23a12.7,12.7,0,0,0,6.89,1.89,13,13,0,0,0,7.77-2.87c3,1.38,7.49,3,10.62,1.44a4.15,4.15,0,0,0,1.74-1.53,13.79,13.79,0,0,0,6.93,1.09c2-.28,4.9-1.25,6.42-2.83,2.57,1.11,6.4,2.31,8.69,1,1.58-.86,1.5-2.31.66-3.9,3.46,1.38,8.49,1.85,10.54-1.63,1.43-2.47-.32-5-2.42-7.11h0c1.24.28,3.79.42,4.08-1.12a3.29,3.29,0,0,0-.53-2.47c2.76-.71,5.3-2.32,5.55-5,.38-4-2-7.33-5.52-9.33a9.25,9.25,0,0,0,4-6.79c.27-2.22-2.19-4.7-4.21-5.78a22,22,0,0,0-2.69-1.15,3.62,3.62,0,0,0-1.1-3.57,7.21,7.21,0,0,0-1.66-1.29c5.12-2.88,8.9-7.24,5.55-11-2.79-3.19-7.08-4.57-11.6-4.81a15.49,15.49,0,0,0-5.77.91c.82-2,1.06-4,.28-5-1.33-1.78-3.36-2-5.4-1.64,0-.17,0-.36.05-.53.24-2.37-.71-5.54-3.42-6.73-5.57-2.49-10,1.29-12.52,6.11a13.89,13.89,0,0,0-3.25-4.72,2.11,2.11,0,0,0-.15-.15,9.83,9.83,0,0,0-3.09-1.91c-4.63-1.67-12.92-1.39-13.81,4.07a13.61,13.61,0,0,0-.21,2.22c-3.29-3.36-7.64-5.26-12-2.5-2.45,1.56-2.79,4.81-2.12,7.12l.17.51c-2.1-.13-4.05.45-5,2.37-.58,1.13,0,3.06,1.19,4.9a15.19,15.19,0,0,0-5.85-.1c-4.43.85-8.4,2.82-10.56,6.33-2.59,4.24,2,8,7.53,10.15a7.29,7.29,0,0,0-1.38,1.51,3.46,3.46,0,0,0-.41,3.67,21.2,21.2,0,0,0-2.45,1.51c-1.8,1.34-3.77,4.13-3.06,6.28a9.77,9.77,0,0,0,5.21,6.16C338.45,1017.11,336.74,1020.75,337.85,1024.64Zm19-24.12c-5.22-2.45-11.79-7.68-7.34-12.79,2.36-2.71,7.25-2.2,11.13-1.27-1.87-2.2-3.48-5-3.54-7.52-.07-2.34,2.59-3.92,5.12-3.79a13.63,13.63,0,0,1,5.84,1.68c-.43-1.93.23-3.83,2.88-4.22a5.36,5.36,0,0,1,3.81.94,9.17,9.17,0,0,1,1.83-4.16c2.36-2.91,6.94-2.07,9.76-.23a16.9,16.9,0,0,1,5.23,5.68c.63-3.26,2.25-6.2,5.28-7.44,3.64-1.48,7.32,1,8.58,3.79a9.64,9.64,0,0,1,.38,6.25c1.66-1.05,3.55-1.22,4.71,1.06a4.16,4.16,0,0,1,.29.8c3.62-2.52,8.1-3.24,11.77,1.09,3.12,3.7-.92,7.45-5.31,9.7a10.53,10.53,0,0,1,5.07,2.56c.93.93,1.37,2.29.49,3.32a2.13,2.13,0,0,1-1.3.67c4.41,1.79,8.19,5.13,6.32,9-2.25,4.61-7.2,3.92-11.56,1.83a1.85,1.85,0,0,1-.24.73c-1.4,2.33-4,1.46-6.21,0a4.78,4.78,0,0,1,.09,4c-1.37,2.8-5,3.44-8.21,3.17-4.8-.38-8.95-3.58-11.3-7.44-.75,3.3-3,6-7.81,6.69-3.92.58-6.34-1.58-7.56-4.41a14.17,14.17,0,0,1-2.17,2c-4.28,3.1-11.34,3.25-15.91.55-4-2.36-5.81-6.66-2.74-10.22A8.6,8.6,0,0,1,356.89,1000.52Z" transform="translate(50.97 17.09)"/><path class="cls-9" d="M341.57,1014.67a9.77,9.77,0,0,1-5.21-6.16c-.71-2.15,1.26-4.94,3.06-6.28.46-.33.93-.63,1.41-.91.25,0,.51,0,.77,0a7.92,7.92,0,0,0-1.77,6.48c.51,2.69,3.41,5.11,6.29,6a18.44,18.44,0,0,0,3.92.8c-2.5,1.55-6,4.2-4.77,7.11s5.08,3.34,9.1,2.43a2.54,2.54,0,0,0,1.08,3.7c2.41,1.42,5.1.09,7.42-1.82a9.88,9.88,0,0,0,.18,2.83,6.22,6.22,0,0,0,5.76,5c6.1.23,9.11-4.1,11.16-8.56.16,3,1.06,6.49,4.4,6,3.09-.48,4.51-3.34,5-6.32,2.16,3.45,6.08,6.25,9.84,5.76a5.08,5.08,0,0,0,4.66-4.58,14.46,14.46,0,0,0,4.71,4.26c2.19,1.13,6.09,1.48,7.31-1.08a4.79,4.79,0,0,0-.35-4.49c2.38,1.41,5.12,2.46,6.38.57a4.27,4.27,0,0,0,0-4.8,13.22,13.22,0,0,0,5.39.67c3.29-.39,4.69-2.52,5-5.21.34-3.06-1.36-5.81-3.89-7.8.28.11.58.21.86.33v0c3.53,2,5.9,5.34,5.52,9.33-.25,2.66-2.79,4.27-5.55,5a3.29,3.29,0,0,1,.53,2.47c-.29,1.54-2.84,1.4-4.08,1.12h0c2.1,2.11,3.85,4.64,2.42,7.11-2.05,3.48-7.08,3-10.54,1.63.84,1.59.92,3-.66,3.9-2.29,1.27-6.12.07-8.69-1-1.52,1.58-4.41,2.55-6.42,2.83a13.79,13.79,0,0,1-6.93-1.09,4.15,4.15,0,0,1-1.74,1.53c-3.13,1.57-7.64-.06-10.62-1.44a13,13,0,0,1-7.77,2.87,12.7,12.7,0,0,1-6.89-1.89c-2.31,1.43-5.88,3.16-8.38,2.23-1.71-.64-1.9-2.08-1.37-3.77-3.14,1.84-8,3-10.69-.15-1.89-2.24-.63-5,1-7.35h0c-1.19.45-3.67.94-4.25-.55a3.3,3.3,0,0,1,.05-2.51c-2.85-.31-5.65-1.55-6.4-4.14C336.74,1020.75,338.45,1017.11,341.57,1014.67Z" transform="translate(50.97 17.09)"/><path class="cls-10" d="M413.34,980.89c.37-1,1.5-1.6,3.59-1.08,2.67.65,4.79,4.21,2.8,6.28C416.91,989,412.43,983.27,413.34,980.89Z" transform="translate(50.97 17.09)"/><path class="cls-10" d="M418.72,1002.43c.21-.54.81-.86,1.94-.59,1.43.38,2.6,2.29,1.51,3.41C420.66,1006.82,418.22,1003.72,418.72,1002.43Z" transform="translate(50.97 17.09)"/><path class="cls-10" d="M407.79,1023.91c.21-.54.81-.86,1.95-.58,1.43.35,2.6,2.28,1.51,3.39C409.72,1028.3,407.29,1025.19,407.79,1023.91Z" transform="translate(50.97 17.09)"/><path class="cls-10" d="M416.2,1018.15c.06-.2.28-.32.7-.22s.94.83.55,1.23C416.9,1019.73,416,1018.61,416.2,1018.15Z" transform="translate(50.97 17.09)"/><path class="cls-10" d="M391.57,999.23c3.19-1.65,6.9,2.43,7.59,4.69.88,2.84-1.43,4.4-4.49,3.08C392.44,1006,388,1001.07,391.57,999.23Z" transform="translate(50.97 17.09)"/><path class="cls-10" d="M353.93,1019.47c1.22-.62,2.64.95,2.92,1.81.32,1.09-.56,1.7-1.72,1.18C354.25,1022.09,352.58,1020.18,353.93,1019.47Z" transform="translate(50.97 17.09)"/><path class="cls-10" d="M363.27,979.36c2.19-1.13,4.77,1.69,5.24,3.25.61,2-1,3-3.1,2.13C363.85,984.07,360.81,980.64,363.27,979.36Z" transform="translate(50.97 17.09)"/><path class="cls-13" d="M1978.54,1131.78v-65.17c-171.57-30.59-561.2-60.24-1014.41-60.24S121.29,1036-50.28,1066.61v65.17Z" transform="translate(50.97 17.09)"/><path class="cls-14" d="M1978.54,1132.37H-50.28a.65.65,0,0,1-.69-.59v-65.17a.64.64,0,0,1,.55-.58c89.66-16,232.3-30.74,401.68-41.59,190.58-12.2,402.51-18.65,612.87-18.65s422.29,6.45,612.87,18.65c169.39,10.85,312,25.62,401.68,41.6a.62.62,0,0,1,.55.57v65.17A.64.64,0,0,1,1978.54,1132.37ZM-49.6,1131.19H1977.86v-64.1C1745.58,1025.78,1289.67,1007,964.13,1007S182.69,1025.78-49.6,1067.09Z" transform="translate(50.97 17.09)"/><g class="cls-15"><path class="cls-16" d="M964.13,1006.37q-18.46,0-36.8.08,28.57,2.17,57.15,4.23c56.1,4.1,112.12,8.78,168.28,12.26,23,1.43,46.14,3.25,68.75,7.33,20.26,3.66,40.92,8.94,57.88,19.48a.56.56,0,0,1,.26.8c-2.5,4.29-7.92,6.69-13,8.23-8.16,2.48-16.9,3.54-25.49,4.21-34.14,2.64-68.65-.09-102.73-2-19.61-1.11-39.27-1.12-58.91-1.54-32.55-.71-65.1-1.52-97.67-2.06-64.38-1.08-128.69-.24-193.06.8-31.38.5-62.86.06-94.22,1-22.53.64-48,4.37-68.92-4.86a.56.56,0,0,1,0-1c29.3-11.75,62.48-11.85,93.32-19.09-110.68-6.13-220.14,15.36-330.68,15.49-.75,0-1-1.05-.19-1.16,32.41-4.38,63.71-13.38,96.1-17.7-61.3.09-122,10.46-183.35,9.46-.75,0-1-1-.18-1.16,49.49-8.47,99.54-14.18,149.68-18.91l21.59-2c-231.84,11.44-417.6,29.75-522.25,48.4v65.17H1978.54v-65.17C1807,1036,1417.34,1006.37,964.13,1006.37Z" transform="translate(50.97 17.09)"/></g><g class="cls-15"><path class="cls-16" d="M1455.36,1018.16c15.34,2.24,30.67,4.5,45.9,7.23,11.55,2.06,113.08,19.11,94.76,40.41-5.75,6.7-16.62,10-25.36,12.68-21.11,6.44-43.07,11.21-64.87,15.54-49.17,9.76-99.2,16.21-149.34,21-50.45,4.8-101.07,7.63-151.73,10.4q-66.21,3.64-132.51,6.37h906.33v-65.17C1873.76,1047.94,1687.64,1029.61,1455.36,1018.16Z" transform="translate(50.97 17.09)"/><path class="cls-16" d="M393.63,1128.82c-43.88-7.83-87.09-17.88-130.29-28.09-16.17-3.81-32.34-8.24-48.87-10.75-13.11-2-26.33-3.59-39.24-6.46-7.94-1.76-20.15-4-24.67-10.66a11.33,11.33,0,0,1-1.32-10.76c4.1-10.26,17.4-17.2,27.68-22.33,1.14-.56,2.29-1.11,3.45-1.66-96.33,8.75-175,18.58-230.65,28.5v65.17H411.06Q402.33,1130.37,393.63,1128.82Z" transform="translate(50.97 17.09)"/></g><path class="cls-17" d="M1281.78,988.36c-3.86-4.3-27.43-20.76-27-21,8.41-3.76,24.71,4.77,31.44,8.58a54,54,0,0,1,15,12.63c1-11.64-8-33.06-7.41-33,10.49,1.89,20.5,17.73,20.87,29.6,8.4-36,40.93-27.61,40.28-27.16-7.46,5.53-12.91,11-17.67,18.59a41.15,41.15,0,0,0-2.09,3.8c3.72-3.16,8.48-5.16,13.37-7.21,9.29-3.92,24.25.62,23.8.87-3.42,2-20.52,9.68-24.23,13a40.77,40.77,0,0,0-5.15,5.57,39.67,39.67,0,0,1,10-1.61c14.17-.29,17.8,5.34,18,5.83-1.35-.56-10-1.28-12.54-.86-6.06,1-12.39,2.73-17.44,5.93a35.82,35.82,0,0,0-14.25,16.42l-41.33-.45c-5.42-8.33-16.41-16.46-27.68-17.42,0,0,0-.07.08-.09,6-4.55,15.51-.26,17.21.17-5.07-9.45-24.85-13.07-25.87-14C1248.91,986.29,1260.56,979.13,1281.78,988.36Z" transform="translate(50.97 17.09)"/><path class="cls-18" d="M1269.84,1001.6c3.34,1.6,6.18,3.79,9.26,5.75a.79.79,0,0,0,1.15-1,18.45,18.45,0,0,0-6.67-6.26c.7.21,1.23.41,1.51.49-5.07-9.45-24.85-13.07-25.87-14,0,0,.15-.2.52-.45,7.54-.22,15.22,2.21,21.65,5.33,7.64,3.7,14.89,8.7,17.94,16,.31.72,1.61.65,1.63-.19.34-8.76-5.57-16-13.63-20.71,1.42.51,2.9,1.07,4.45,1.74-3.68-4.11-25.25-19.25-26.9-20.82,10.65,1.62,20.95,8.22,28.45,14.49,3.84,3.2,7.46,6.78,9.74,11,2.44,4.44,3.65,9.12,4.82,13.89a.88.88,0,0,0,1.59,0c2-7.5,1.52-16.25-2.81-23.15a44.23,44.23,0,0,1,4.54,4.86c1-11.64-8-33.06-7.41-33l.51.11c5.71,5.21,9,13.21,11.12,19.58a59.79,59.79,0,0,1,3.15,16.89c.17,5.33-1,10.59-1.22,15.89,0,.66,1.17,1,1.55.38,3.92-6.76,5.6-14.89,6-22.41,0-.58,0-1.17,0-1.73,4.51-18,15.13-24.55,24.3-26.61a37.71,37.71,0,0,0-7.52,5.27c-3.94,3.65-7.92,7.93-9.64,12.78-1.69,4.69-3,10.53-2.24,15.42.1.71,1.13.64,1.5.21,2.51-2.85,3.49-6.62,5.44-9.75a51.27,51.27,0,0,1,8.46-10.73,72.68,72.68,0,0,1,11.7-8.81,56.7,56.7,0,0,1,6.91-3.17,64,64,0,0,0-16.53,17.71,37.83,37.83,0,0,0-2,3.64,32.46,32.46,0,0,0-4.43,6.12c-3.32,6-8.11,12.88-9,19.59-.09.75,1.12.9,1.54.36,3.4-4.29,6.24-9.11,10.27-13a63,63,0,0,1,13.8-10.27,73.91,73.91,0,0,1,17.19-7.09c.21,0,3.45-.72,6.2-1.09-5.33,2.72-19.45,9.23-22.75,12.21a40.77,40.77,0,0,0-5.15,5.57,40.15,40.15,0,0,1,7.69-1.46,27.24,27.24,0,0,0-9.14,3.71c-5.42,3.61-11.59,8.1-13.74,13.91-.24.67.82,1.24,1.38.7,5.53-5.16,12.25-9.62,20.28-11.43.23-.06.47-.08.68-.15a37,37,0,0,0-9.07,4,35.82,35.82,0,0,0-14.25,16.42l-41.33-.45c-5.38-8.29-16.25-16.32-27.4-17.39A18.82,18.82,0,0,1,1269.84,1001.6Z" transform="translate(50.97 17.09)"/><path class="cls-19" d="M1330.94,969.58c-.22-1.7,3.06-4.38,4.1-5.41a19.89,19.89,0,0,1,7.66-4.78,11.1,11.1,0,0,1,2.34-.68c1-.08,1.61.3.92,1.08s-14.44,11.34-15,10A1.09,1.09,0,0,0,1330.94,969.58Z" transform="translate(50.97 17.09)"/><path class="cls-20" d="M1359.9,993.32a6.21,6.21,0,0,1,4.33.24c1,.78-.7,1.09-1.53,1.15s-2.32.15-2.86-.43S1359.56,993.52,1359.9,993.32Z" transform="translate(50.97 17.09)"/><path class="cls-19" d="M1345.59,977.53c.55-1.31,3.5-2.7,4.38-3.08a19,19,0,0,1,7.41-1.44,4.45,4.45,0,0,1,1.93.24c1.7.73-1,1.62-1.66,1.83a46.94,46.94,0,0,0-6.94,2.72,11.85,11.85,0,0,1-2.91,1.09c-.66.1-2,0-2.24-.68A.78.78,0,0,1,1345.59,977.53Z" transform="translate(50.97 17.09)"/><path class="cls-19" d="M1302.1,961.81c3.36,1.49,5.75,5.52,7.05,9.28.65,1.52,4.53,11.61,1.4,12.26-.72.16-1.51-.89-1.65-1.36-1-3.47-1.2-7-2.35-10.37s-3-6.26-4.81-9.34C1301.56,962,1301.68,961.61,1302.1,961.81Z" transform="translate(50.97 17.09)"/><path class="cls-19" d="M1274.33,972.71c4.88-.37,10,3.08,13.56,5.33a25.07,25.07,0,0,1,7.85,7.93,5.24,5.24,0,0,1,.64,4.92c-.3.56-1.29-.24-1.48-.47a54,54,0,0,0-8.82-8.8c-3.54-2.72-7.94-4.53-11.31-7.38C1274.55,974.06,1273.49,972.79,1274.33,972.71Z" transform="translate(50.97 17.09)"/><path class="cls-19" d="M1266.87,986a1.85,1.85,0,0,1,.89-.39c1.54-.41,3.54.33,5,.78,1.07.32,5.67,2,4.74,3.53-.57.92-3.54.15-4.44-.08-1.73-.45-3.67-.71-5.17-1.63C1267,987.59,1266.25,986.6,1266.87,986Z" transform="translate(50.97 17.09)"/><path class="cls-21" d="M1307.1,1001c-2.21-2.48-15.93-12-15.68-12.15,4.89-2.22,14.34,2.76,18.26,5a31.31,31.31,0,0,1,8.71,7.35c.57-6.77-4.64-19.21-4.32-19.16,6.12,1.09,11.92,10.3,12.13,17.18,4.87-20.91,23.78-16,23.39-15.76a37.76,37.76,0,0,0-10.26,10.8c-.43.7-.84,1.43-1.22,2.2a29.91,29.91,0,0,1,7.79-4.2c5.38-2.28,14.07.37,13.79.51-2,1.14-11.9,5.64-14,7.56a26.36,26.36,0,0,0-3,3.22,22.57,22.57,0,0,1,5.85-.93c8.21-.17,10.31,3.11,10.47,3.39a27.11,27.11,0,0,0-7.29-.48,27.62,27.62,0,0,0-10.14,3.42,20.87,20.87,0,0,0-8.26,9.53l-24-.25c-3.18-4.84-9.56-9.57-16.09-10.12,0,0,0,0,0-.05,3.51-2.65,9-.18,10,.09-3-5.49-14.44-7.57-15-8.14C1288,999.84,1294.77,995.67,1307.1,1001Z" transform="translate(50.97 17.09)"/><path class="cls-18" d="M1300.15,1008.71a53.74,53.74,0,0,1,5.37,3.33c.43.24.89-.22.69-.54a10.32,10.32,0,0,0-3.86-3.65l.87.28c-3-5.49-14.44-7.57-15-8.14,0,0,.08-.11.3-.24a27.37,27.37,0,0,1,12.57,3.07c4.45,2.19,8.66,5.08,10.42,9.33.19.42.92.38,1-.11.2-5.1-3.23-9.27-7.92-12,.83.3,1.69.64,2.59,1-2.15-2.39-14.67-11.19-15.61-12.09,6.16.93,12.14,4.77,16.5,8.41a23.33,23.33,0,0,1,5.67,6.39,32.5,32.5,0,0,1,2.81,8.07c.08.37.8.39.92,0,1.13-4.36.87-9.45-1.65-13.47a27.36,27.36,0,0,1,2.65,2.85c.57-6.77-4.64-19.21-4.32-19.16l.31.05c3.31,3,5.21,7.68,6.47,11.39a34.68,34.68,0,0,1,1.81,9.81c.1,3.1-.58,6.12-.7,9.22,0,.39.68.59.9.23a29.07,29.07,0,0,0,3.46-13c0-.34,0-.65,0-1,2.6-10.46,8.78-14.25,14.1-15.44a23.18,23.18,0,0,0-4.36,3c-2.29,2.13-4.6,4.63-5.62,7.44s-1.75,6.12-1.3,9c0,.39.67.35.89.09,1.44-1.65,2-3.83,3.14-5.67a30,30,0,0,1,4.93-6.22,42.51,42.51,0,0,1,6.8-5.13,33.56,33.56,0,0,1,4-1.82,37,37,0,0,0-9.6,10.29,19.39,19.39,0,0,0-1.16,2.1,19.59,19.59,0,0,0-2.58,3.55c-1.94,3.5-4.72,7.5-5.21,11.38,0,.45.65.54.91.22,2-2.48,3.62-5.27,6-7.55a35.39,35.39,0,0,1,8-6,41.73,41.73,0,0,1,10-4.13c.12,0,2-.42,3.57-.66-3.08,1.59-11.26,5.39-13.18,7.12a26.36,26.36,0,0,0-3,3.22,24.38,24.38,0,0,1,4.48-.83,15.52,15.52,0,0,0-5.3,2.14c-3.16,2.07-6.76,4.69-8,8.07-.13.39.48.74.8.42a25.76,25.76,0,0,1,11.78-6.63l.39-.1a22.52,22.52,0,0,0-5.27,2.33,20.87,20.87,0,0,0-8.26,9.53l-24-.25c-3.14-4.81-9.46-9.47-15.93-10.1A10.69,10.69,0,0,1,1300.15,1008.71Z" transform="translate(50.97 17.09)"/><path class="cls-20" d="M1335.66,990.11c-.13-1,1.78-2.53,2.37-3.14a11.82,11.82,0,0,1,4.44-2.77,7,7,0,0,1,1.37-.39c.6-.06,1,.18.54.63s-8.4,6.57-8.67,5.82A.26.26,0,0,1,1335.66,990.11Z" transform="translate(50.97 17.09)"/><path class="cls-20" d="M1352.49,1003.9a3.63,3.63,0,0,1,2.5.14c.55.46-.4.62-.88.67s-1.36.08-1.67-.24S1352.25,1004,1352.49,1003.9Z" transform="translate(50.97 17.09)"/><path class="cls-20" d="M1344.15,994.73c.33-.75,2-1.57,2.57-1.8a11.19,11.19,0,0,1,4.29-.83,2.64,2.64,0,0,1,1.14.17c1,.4-.58.93-1,1a27,27,0,0,0-4,1.58,7.28,7.28,0,0,1-1.7.63c-.39.07-1.16,0-1.31-.38A.58.58,0,0,1,1344.15,994.73Z" transform="translate(50.97 17.09)"/><path class="cls-20" d="M1318.94,986.08c2.24.94,3.93,3.57,4.87,6a16.16,16.16,0,0,1,1.11,3.43c.7,2.1,1.19,4.38.08,4.64-.48.11-1-.57-1.13-.88-.73-2.24-.95-4.57-1.77-6.8a35,35,0,0,0-3.39-6.09C1318.58,986.24,1318.64,986,1318.94,986.08Z" transform="translate(50.97 17.09)"/><path class="cls-20" d="M1303.19,991.9c2.83-.21,5.84,1.78,7.89,3.08a14.76,14.76,0,0,1,4.55,4.59,3.11,3.11,0,0,1,.37,2.89c-.17.33-.76-.15-.86-.3a29.73,29.73,0,0,0-5.13-5.08c-2-1.6-4.61-2.64-6.57-4.29C1303.33,992.68,1302.73,991.93,1303.19,991.9Z" transform="translate(50.97 17.09)"/><path class="cls-20" d="M1298.45,999.61a1.11,1.11,0,0,1,.5-.23,6.1,6.1,0,0,1,2.89.47c.63.19,3.31,1.14,2.76,2-.35.52-2.07.1-2.58,0a10.07,10.07,0,0,1-3-.94C1298.48,1000.59,1298.07,1000,1298.45,999.61Z" transform="translate(50.97 17.09)"/><path class="cls-22" d="M1338.38,1014.84a4.19,4.19,0,0,0-.24-2c-3.48-8.46-18.61-2.53-21,3.68-2.08,5.48,11.92,4.75,15.26,4.14,2.43-.44,4.28-1.27,5.59-3.1A3.28,3.28,0,0,0,1338.38,1014.84Z" transform="translate(50.97 17.09)"/><path class="cls-23" d="M1324.36,1014.85a.87.87,0,0,0-.06-.43c-.76-1.85-4.06-.56-4.57.8-.46,1.18,2.6,1,3.32.9a1.81,1.81,0,0,0,1.22-.67A.78.78,0,0,0,1324.36,1014.85Z" transform="translate(50.97 17.09)"/><path class="cls-22" d="M1288.42,1017a2,2,0,0,0-.13-1c-1.77-4.33-9.53-1.31-10.73,1.88-1.07,2.8,6.09,2.43,7.8,2.12a4.16,4.16,0,0,0,2.87-1.59A1.69,1.69,0,0,0,1288.42,1017Z" transform="translate(50.97 17.09)"/><path class="cls-23" d="M1281.23,1017a.52.52,0,0,0,0-.22c-.39-.95-2.07-.28-2.34.41s1.33.53,1.7.47a1,1,0,0,0,.63-.35A.41.41,0,0,0,1281.23,1017Z" transform="translate(50.97 17.09)"/><path class="cls-24" d="M1310.26,1014.72a4.23,4.23,0,0,0-.25-2c-3.53-8.59-18.9-2.59-21.31,3.73-2.12,5.54,12.11,4.81,15.49,4.2,2.47-.44,4.34-1.29,5.68-3.14A3.42,3.42,0,0,0,1310.26,1014.72Z" transform="translate(50.97 17.09)"/><path class="cls-25" d="M1296,1014.74a1,1,0,0,0,0-.44c-.77-1.88-4.12-.56-4.65.82-.46,1.2,2.65,1,3.38.91a1.89,1.89,0,0,0,1.23-.68A.73.73,0,0,0,1296,1014.74Z" transform="translate(50.97 17.09)"/><path class="cls-22" d="M1318.42,1017.15a2.11,2.11,0,0,0-.14-1c-1.77-4.33-9.52-1.3-10.73,1.88-1.07,2.8,6.1,2.43,7.8,2.11a4.06,4.06,0,0,0,2.87-1.58A1.73,1.73,0,0,0,1318.42,1017.15Z" transform="translate(50.97 17.09)"/><path class="cls-23" d="M1311.23,1017.15a.51.51,0,0,0,0-.22c-.39-.94-2.07-.29-2.33.41s1.33.53,1.69.46a.94.94,0,0,0,.63-.34A.47.47,0,0,0,1311.23,1017.15Z" transform="translate(50.97 17.09)"/><path class="cls-26" d="M1114.31,1033.18a3.43,3.43,0,0,0,.93-1.15c.79-2.09-2.21-2.89-4.62-1.37a26.55,26.55,0,0,0-2.86,2,9,9,0,0,0-6.9-1.47c-1.76.45-3.32,1.24-3.33,2.53,0,1.08,1.8,1.63,3.8,1.9-2.63.86-4.86,2.15-4.68,3.8s4.77.7,6,.37a17.56,17.56,0,0,0,5.2-2.38c.29,1.18,1.18,2.1,3.29,2.65a5.8,5.8,0,0,0,4.41-.86,2,2,0,0,0,.83-2.45c1.8-.21,3.32-.74,3.74-1.76C1120.91,1033,1117.64,1032.77,1114.31,1033.18Z" transform="translate(50.97 17.09)"/><path class="cls-5" d="M1114.31,1032.19a3.25,3.25,0,0,0,.93-1.15c.79-2.09-2.21-2.89-4.62-1.37a29,29,0,0,0-2.86,2,8.9,8.9,0,0,0-6.9-1.48c-1.76.44-3.32,1.25-3.33,2.52,0,1.09,1.8,1.63,3.8,1.91-2.63.87-4.86,2.14-4.68,3.79s4.77.7,6,.38a19.22,19.22,0,0,0,5.2-2.38c.29,1.17,1.18,2.1,3.29,2.65a5.76,5.76,0,0,0,4.41-.88,2,2,0,0,0,.83-2.44c1.8-.2,3.32-.73,3.74-1.78C1120.91,1032,1117.64,1031.78,1114.31,1032.19Z" transform="translate(50.97 17.09)"/><path class="cls-27" d="M1111.2,1033.56c0,.76-1.42,1.38-3.14,1.38s-3.17-.62-3.17-1.38,1.41-1.4,3.17-1.4S1111.2,1032.79,1111.2,1033.56Z" transform="translate(50.97 17.09)"/><path class="cls-26" d="M1733.9,1049.51a2.79,2.79,0,0,0,.75-.94c.64-1.7-1.79-2.35-3.75-1.11a21.14,21.14,0,0,0-2.33,1.61,7.28,7.28,0,0,0-5.6-1.19c-1.44.36-2.7,1-2.72,2,0,.88,1.48,1.33,3.1,1.55-2.14.7-3.95,1.74-3.81,3.08s3.88.57,4.88.31a15.07,15.07,0,0,0,4.23-1.94c.23,1,.95,1.7,2.67,2.14a4.62,4.62,0,0,0,3.58-.69c.8-.68,1-1.38.67-2,1.47-.18,2.7-.6,3-1.43C1739.25,1049.35,1736.6,1049.17,1733.9,1049.51Z" transform="translate(50.97 17.09)"/><path class="cls-5" d="M1733.9,1048.69a2.5,2.5,0,0,0,.75-.93c.64-1.69-1.79-2.34-3.75-1.11a21.51,21.51,0,0,0-2.33,1.62,7.28,7.28,0,0,0-5.6-1.19c-1.44.35-2.7,1-2.72,2.05,0,.88,1.48,1.32,3.1,1.55-2.14.71-3.95,1.74-3.81,3.08s3.88.57,4.88.3a15.33,15.33,0,0,0,4.23-1.93c.23.95.95,1.7,2.67,2.15a4.67,4.67,0,0,0,3.58-.7c.8-.68,1-1.37.67-2,1.47-.17,2.7-.6,3-1.44C1739.25,1048.55,1736.6,1048.37,1733.9,1048.69Z" transform="translate(50.97 17.09)"/><path class="cls-27" d="M1731.37,1049.82c0,.62-1.15,1.12-2.56,1.12s-2.57-.5-2.57-1.12,1.15-1.14,2.57-1.14S1731.37,1049.19,1731.37,1049.82Z" transform="translate(50.97 17.09)"/><path class="cls-26" d="M825.74,1025.76a4.57,4.57,0,0,0,1.16-1.41c1-2.58-2.73-3.57-5.7-1.69a33,33,0,0,0-3.53,2.43c-2.09-1.35-5.28-2.62-8.47-1.8-2.18.55-4.1,1.53-4.12,3.12,0,1.33,2.23,2,4.69,2.33-3.24,1.07-6,2.65-5.76,4.67s5.87.87,7.38.46a22.87,22.87,0,0,0,6.41-2.91c.35,1.43,1.44,2.56,4,3.23a7,7,0,0,0,5.42-1.06c1.22-1,1.45-2.07,1-3,2.22-.27,4.08-.91,4.6-2.18C833.87,1025.52,829.84,1025.26,825.74,1025.76Z" transform="translate(50.97 17.09)"/><path class="cls-5" d="M825.74,1024.54a4.18,4.18,0,0,0,1.16-1.42c1-2.56-2.73-3.54-5.7-1.69a37.77,37.77,0,0,0-3.53,2.46c-2.09-1.36-5.28-2.63-8.47-1.81-2.18.53-4.1,1.54-4.12,3.11,0,1.34,2.23,2,4.69,2.34-3.24,1.06-6,2.64-5.76,4.67s5.87.86,7.38.46a22.92,22.92,0,0,0,6.41-2.93c.35,1.44,1.44,2.59,4,3.27a7.08,7.08,0,0,0,5.42-1.09c1.22-1,1.45-2.06,1-3,2.22-.25,4.08-.89,4.6-2.18C833.87,1024.3,829.84,1024,825.74,1024.54Z" transform="translate(50.97 17.09)"/><path class="cls-27" d="M821.92,1026.22c0,1-1.74,1.7-3.88,1.7s-3.89-.75-3.89-1.7,1.74-1.72,3.89-1.72S821.92,1025.28,821.92,1026.22Z" transform="translate(50.97 17.09)"/><path class="cls-26" d="M778.36,1047a2.92,2.92,0,0,0,.75-.94c.64-1.7-1.8-2.35-3.75-1.1a20.78,20.78,0,0,0-2.33,1.6,7.32,7.32,0,0,0-5.6-1.19c-1.44.36-2.71,1-2.71,2,0,.89,1.46,1.33,3.09,1.55-2.14.7-3.95,1.74-3.81,3.08s3.88.57,4.88.31a15.33,15.33,0,0,0,4.23-1.93c.24,1,.95,1.69,2.67,2.14a4.66,4.66,0,0,0,3.58-.7c.8-.67,1-1.37.67-2,1.47-.17,2.7-.61,3-1.44C783.72,1046.86,781.06,1046.69,778.36,1047Z" transform="translate(50.97 17.09)"/><path class="cls-5" d="M778.36,1046.21a2.55,2.55,0,0,0,.75-.94c.64-1.68-1.8-2.33-3.75-1.1a21.51,21.51,0,0,0-2.33,1.62,7.28,7.28,0,0,0-5.6-1.2c-1.44.36-2.71,1-2.71,2.05,0,.89,1.46,1.32,3.09,1.55-2.14.71-3.95,1.74-3.81,3.08s3.88.58,4.88.3a14.77,14.77,0,0,0,4.23-1.93c.24,1,.95,1.71,2.67,2.15a4.62,4.62,0,0,0,3.58-.71c.8-.67,1-1.36.67-2,1.47-.17,2.7-.59,3-1.45C783.72,1046.06,781.06,1045.88,778.36,1046.21Z" transform="translate(50.97 17.09)"/><path class="cls-27" d="M775.82,1047.33c0,.62-1.14,1.12-2.55,1.12s-2.57-.5-2.57-1.12,1.15-1.14,2.57-1.14S775.82,1046.7,775.82,1047.33Z" transform="translate(50.97 17.09)"/><path class="cls-26" d="M369.87,1034.35c.51,1.27,2.38,1.91,4.6,2.17-.43.94-.19,2,1,3a7,7,0,0,0,5.42,1.06c2.6-.67,3.69-1.81,4.05-3.24a22.9,22.9,0,0,0,6.39,2.92c1.52.4,7.16,1.57,7.39-.47s-2.52-3.6-5.76-4.66c2.46-.34,4.7-1,4.68-2.34,0-1.58-1.92-2.56-4.11-3.12-3.2-.81-6.39.46-8.47,1.81a31,31,0,0,0-3.54-2.44c-3-1.88-6.65-.89-5.69,1.7a4.4,4.4,0,0,0,1.16,1.4C372.92,1031.66,368.9,1031.91,369.87,1034.35Z" transform="translate(50.97 17.09)"/><path class="cls-5" d="M369.87,1033.12c.51,1.29,2.38,1.93,4.6,2.19-.43.94-.19,2,1,3a7,7,0,0,0,5.42,1.08c2.6-.68,3.69-1.82,4.05-3.26a23.22,23.22,0,0,0,6.39,2.93c1.52.4,7.16,1.57,7.39-.46s-2.52-3.61-5.76-4.68c2.46-.34,4.7-1,4.68-2.34,0-1.57-1.92-2.57-4.11-3.11-3.2-.82-6.39.45-8.47,1.82a34.66,34.66,0,0,0-3.54-2.46c-3-1.86-6.65-.87-5.69,1.68a4.06,4.06,0,0,0,1.16,1.42C372.92,1030.43,368.9,1030.7,369.87,1033.12Z" transform="translate(50.97 17.09)"/><path class="cls-27" d="M380.84,1032.61c0,1,1.75,1.71,3.88,1.71s3.89-.75,3.89-1.71-1.74-1.72-3.89-1.72S380.84,1031.67,380.84,1032.61Z" transform="translate(50.97 17.09)"/><path class="cls-26" d="M419.69,1054.86c.34.84,1.57,1.27,3,1.44a1.6,1.6,0,0,0,.67,2,4.67,4.67,0,0,0,3.58.71c1.71-.45,2.44-1.19,2.67-2.15a14.94,14.94,0,0,0,4.23,1.94c1,.26,4.71,1,4.87-.31s-1.66-2.38-3.8-3.08c1.63-.22,3.1-.67,3.09-1.55,0-1-1.27-1.69-2.71-2.06a7.29,7.29,0,0,0-5.59,1.2,23.24,23.24,0,0,0-2.33-1.61c-2-1.24-4.4-.59-3.76,1.11a2.69,2.69,0,0,0,.76.93C421.7,1053.08,419,1053.26,419.69,1054.86Z" transform="translate(50.97 17.09)"/><path class="cls-5" d="M419.69,1054.05c.34.86,1.57,1.28,3,1.44-.29.63-.13,1.31.67,2a4.63,4.63,0,0,0,3.58.72c1.71-.44,2.44-1.2,2.67-2.15a15.2,15.2,0,0,0,4.23,1.93c1,.28,4.71,1,4.87-.3s-1.66-2.38-3.8-3.09c1.63-.22,3.1-.66,3.09-1.54,0-1-1.27-1.69-2.71-2.06a7.25,7.25,0,0,0-5.59,1.21,22,22,0,0,0-2.33-1.62c-2-1.24-4.4-.58-3.76,1.1a2.47,2.47,0,0,0,.76.94C421.7,1052.28,419,1052.45,419.69,1054.05Z" transform="translate(50.97 17.09)"/><path class="cls-27" d="M426.93,1053.72c0,.63,1.15,1.12,2.56,1.12s2.57-.49,2.57-1.12-1.15-1.13-2.57-1.13S426.93,1053.1,426.93,1053.72Z" transform="translate(50.97 17.09)"/><path class="cls-26" d="M1411.83,1056.89a3.07,3.07,0,0,0,.75-.94c.65-1.71-1.79-2.37-3.75-1.12a23.46,23.46,0,0,0-2.32,1.6,7.37,7.37,0,0,0-5.6-1.18c-1.44.36-2.71,1-2.72,2.06,0,.87,1.47,1.31,3.09,1.53-2.14.7-3.94,1.76-3.8,3.08s3.88.57,4.88.33a14.88,14.88,0,0,0,4.22-1.94c.24.94,1,1.7,2.67,2.15a4.73,4.73,0,0,0,3.59-.71,1.61,1.61,0,0,0,.67-2c1.46-.17,2.7-.59,3-1.43C1417.19,1056.72,1414.54,1056.55,1411.83,1056.89Z" transform="translate(50.97 17.09)"/><path class="cls-5" d="M1411.83,1056.07a2.5,2.5,0,0,0,.75-.94c.65-1.67-1.79-2.33-3.75-1.1a22.23,22.23,0,0,0-2.32,1.61,7.33,7.33,0,0,0-5.6-1.19c-1.44.36-2.71,1-2.72,2s1.47,1.31,3.09,1.54c-2.14.71-3.94,1.75-3.8,3.09s3.88.57,4.88.31a15.14,15.14,0,0,0,4.22-1.93c.24.94,1,1.7,2.67,2.15a4.69,4.69,0,0,0,3.59-.72,1.61,1.61,0,0,0,.67-2c1.46-.15,2.7-.58,3-1.43C1417.19,1055.92,1414.54,1055.75,1411.83,1056.07Z" transform="translate(50.97 17.09)"/><path class="cls-27" d="M1409.31,1057.19c0,.61-1.15,1.12-2.57,1.12s-2.56-.51-2.56-1.12,1.15-1.13,2.56-1.13S1409.31,1056.55,1409.31,1057.19Z" transform="translate(50.97 17.09)"/><path class="cls-26" d="M1442.05,1046.93a4.64,4.64,0,0,0,1.1-1.34c.9-2.46-2.59-3.4-5.41-1.6a32,32,0,0,0-3.34,2.29c-2-1.27-5-2.49-8.05-1.71-2.07.53-3.89,1.47-3.9,3,0,1.26,2.11,1.91,4.45,2.22-3.07,1-5.68,2.51-5.48,4.43s5.58.82,7,.45a21.28,21.28,0,0,0,6.08-2.78c.34,1.37,1.38,2.44,3.84,3.09a6.72,6.72,0,0,0,5.15-1c1.15-1,1.38-2,1-2.85,2.11-.24,3.89-.87,4.37-2.06C1449.76,1046.69,1446,1046.44,1442.05,1046.93Z" transform="translate(50.97 17.09)"/><path class="cls-5" d="M1442.05,1045.76a4,4,0,0,0,1.1-1.34c.9-2.43-2.59-3.37-5.41-1.59a30.22,30.22,0,0,0-3.34,2.32c-2-1.29-5-2.5-8.05-1.73-2.07.52-3.89,1.47-3.9,3,0,1.27,2.11,1.89,4.45,2.21-3.07,1-5.68,2.51-5.48,4.45s5.58.82,7,.43a21.84,21.84,0,0,0,6.08-2.78c.34,1.36,1.38,2.45,3.84,3.1a6.68,6.68,0,0,0,5.15-1c1.15-1,1.38-2,1-2.85,2.11-.23,3.89-.85,4.37-2.07C1449.76,1045.54,1446,1045.29,1442.05,1045.76Z" transform="translate(50.97 17.09)"/><path class="cls-27" d="M1438.43,1047.36c0,.9-1.66,1.61-3.69,1.61s-3.7-.71-3.7-1.61,1.67-1.63,3.7-1.63S1438.43,1046.46,1438.43,1047.36Z" transform="translate(50.97 17.09)"/><path class="cls-17" d="M1493.82,1027.37c-3.85-4.31-27.43-20.76-27-21,8.42-3.76,24.71,4.78,31.44,8.58a54.1,54.1,0,0,1,15,12.64c1-11.64-8-33.07-7.41-33,10.49,1.89,20.49,17.73,20.87,29.59,8.4-36,40.93-27.6,40.28-27.16-7.47,5.54-12.92,11-17.68,18.59-.77,1.22-1.43,2.51-2.08,3.81,3.72-3.16,8.47-5.16,13.37-7.21,9.28-3.92,24.25.62,23.8.87-3.43,2-20.52,9.68-24.23,13a41.51,41.51,0,0,0-5.16,5.57,39.23,39.23,0,0,1,10-1.61c14.17-.3,17.79,5.34,18,5.83-1.35-.56-10-1.28-12.54-.87-6.07,1-12.39,2.73-17.45,5.93a35.82,35.82,0,0,0-14.24,16.43l-41.33-.46c-5.43-8.33-16.42-16.45-27.68-17.42a.38.38,0,0,0,.07-.08c6.06-4.55,15.51-.27,17.22.16-5.08-9.45-24.85-13.06-25.88-14C1461,1025.3,1472.6,1018.14,1493.82,1027.37Z" transform="translate(50.97 17.09)"/><path class="cls-18" d="M1481.89,1040.61c3.33,1.6,6.18,3.79,9.26,5.74.7.45,1.5-.37,1.15-1a18.61,18.61,0,0,0-6.67-6.26c.69.21,1.22.4,1.51.48-5.08-9.45-24.85-13.06-25.88-14,0,0,.15-.19.52-.44,7.54-.22,15.22,2.21,21.65,5.32,7.64,3.71,14.9,8.7,17.94,16,.31.72,1.61.64,1.64-.19.33-8.77-5.58-16-13.64-20.71,1.43.51,2.91,1.07,4.45,1.74-3.67-4.11-25.24-19.26-26.89-20.83,10.65,1.63,21,8.23,28.44,14.49,3.85,3.21,7.47,6.79,9.75,11,2.43,4.44,3.65,9.11,4.82,13.88a.88.88,0,0,0,1.59,0c2-7.49,1.52-16.24-2.81-23.15a46.27,46.27,0,0,1,4.54,4.87c1-11.64-8-33.07-7.41-33l.5.11c5.71,5.21,9,13.21,11.13,19.58a60.07,60.07,0,0,1,3.15,16.89c.17,5.32-1,10.58-1.22,15.89,0,.66,1.16,1,1.54.37,3.92-6.75,5.6-14.88,6-22.4,0-.58,0-1.17,0-1.73,4.51-18,15.12-24.56,24.3-26.61a37.71,37.71,0,0,0-7.52,5.27c-4,3.65-7.92,7.93-9.64,12.78-1.7,4.69-3,10.53-2.25,15.42.11.71,1.13.63,1.51.21,2.5-2.85,3.49-6.62,5.43-9.76a51.53,51.53,0,0,1,8.47-10.72,71.67,71.67,0,0,1,11.7-8.81,55.88,55.88,0,0,1,6.9-3.17,64,64,0,0,0-16.53,17.7,41.52,41.52,0,0,0-2,3.64,32.48,32.48,0,0,0-4.42,6.13c-3.32,6-8.12,12.88-9,19.59-.09.75,1.13.89,1.55.36,3.4-4.29,6.24-9.11,10.26-13a62.66,62.66,0,0,1,13.81-10.27,73.3,73.3,0,0,1,17.19-7.09c.21,0,3.45-.73,6.19-1.09-5.33,2.72-19.44,9.23-22.74,12.21a41.51,41.51,0,0,0-5.16,5.57,40.25,40.25,0,0,1,7.7-1.46,27.21,27.21,0,0,0-9.15,3.71c-5.42,3.6-11.59,8.09-13.73,13.9-.24.67.81,1.24,1.37.71,5.54-5.17,12.26-9.63,20.28-11.44a7,7,0,0,0,.69-.14,37.46,37.46,0,0,0-9.08,4,35.82,35.82,0,0,0-14.24,16.43l-41.33-.46c-5.38-8.28-16.26-16.32-27.41-17.38A18.85,18.85,0,0,1,1481.89,1040.61Z" transform="translate(50.97 17.09)"/><path class="cls-19" d="M1543,1008.58c-.23-1.7,3-4.37,4.1-5.4a19.89,19.89,0,0,1,7.66-4.78,10.93,10.93,0,0,1,2.34-.68c1-.09,1.61.3.92,1.08s-14.44,11.34-15,10A1.53,1.53,0,0,0,1543,1008.58Z" transform="translate(50.97 17.09)"/><path class="cls-20" d="M1572,1032.32a6.26,6.26,0,0,1,4.33.25c1,.77-.71,1.09-1.54,1.15s-2.31.15-2.86-.43S1571.61,1032.53,1572,1032.32Z" transform="translate(50.97 17.09)"/><path class="cls-19" d="M1557.63,1016.54c.56-1.32,3.51-2.71,4.39-3.08a18.79,18.79,0,0,1,7.41-1.45,4.31,4.31,0,0,1,1.93.25c1.7.73-1,1.62-1.67,1.82a47.49,47.49,0,0,0-6.93,2.72,12,12,0,0,1-2.91,1.1c-.66.1-2,0-2.24-.68A.81.81,0,0,1,1557.63,1016.54Z" transform="translate(50.97 17.09)"/><path class="cls-19" d="M1514.14,1000.81c3.36,1.49,5.76,5.53,7.06,9.28.65,1.53,4.52,11.61,1.39,12.27-.71.15-1.51-.9-1.65-1.36-1-3.47-1.19-7-2.34-10.38a52.52,52.52,0,0,0-4.81-9.34C1513.6,1001,1513.72,1000.62,1514.14,1000.81Z" transform="translate(50.97 17.09)"/><path class="cls-19" d="M1486.38,1011.72c4.88-.37,10,3.08,13.55,5.32a25.13,25.13,0,0,1,7.86,7.94,5.26,5.26,0,0,1,.63,4.92c-.3.56-1.29-.24-1.48-.47a53.54,53.54,0,0,0-8.81-8.8c-3.54-2.72-7.94-4.53-11.31-7.38C1486.59,1013.07,1485.54,1011.79,1486.38,1011.72Z" transform="translate(50.97 17.09)"/><path class="cls-19" d="M1478.92,1025a1.85,1.85,0,0,1,.88-.4c1.54-.4,3.55.33,5,.78,1.07.33,5.68,2,4.75,3.54-.58.91-3.55.14-4.45-.09a18.62,18.62,0,0,1-5.16-1.63C1479,1026.59,1478.29,1025.6,1478.92,1025Z" transform="translate(50.97 17.09)"/><path class="cls-21" d="M1519.14,1040c-2.21-2.48-15.93-12.06-15.67-12.16,4.89-2.21,14.34,2.77,18.25,5a31.14,31.14,0,0,1,8.72,7.34c.56-6.76-4.64-19.2-4.32-19.16,6.11,1.1,11.91,10.31,12.12,17.19,4.88-20.91,23.79-16,23.4-15.76a38,38,0,0,0-10.27,10.79c-.43.71-.83,1.44-1.21,2.21a30,30,0,0,1,7.78-4.2c5.38-2.28,14.08.37,13.8.5-2,1.14-11.91,5.65-14,7.57a24.93,24.93,0,0,0-3,3.22,22.49,22.49,0,0,1,5.84-.93c8.22-.18,10.32,3.11,10.48,3.38a23.18,23.18,0,0,0-17.43,2.94,21,21,0,0,0-8.27,9.54l-24-.26c-3.18-4.83-9.55-9.56-16.08-10.11a.08.08,0,0,1,0-.06c3.5-2.64,9-.17,10,.09-3-5.48-14.44-7.56-15-8.13C1500.05,1038.84,1506.81,1034.68,1519.14,1040Z" transform="translate(50.97 17.09)"/><path class="cls-18" d="M1512.2,1047.71a55.65,55.65,0,0,1,5.37,3.33c.42.25.89-.21.69-.53a10.47,10.47,0,0,0-3.86-3.65c.37.13.68.22.86.27-3-5.48-14.44-7.56-15-8.13,0,0,.09-.11.3-.24a27.29,27.29,0,0,1,12.58,3.07c4.44,2.19,8.66,5.08,10.42,9.32.19.43.91.39.94-.11.2-5.09-3.23-9.26-7.91-12,.83.3,1.68.63,2.58,1-2.14-2.39-14.66-11.19-15.6-12.09,6.16.93,12.14,4.77,16.49,8.41a23.06,23.06,0,0,1,5.68,6.39,32.54,32.54,0,0,1,2.8,8.06c.08.38.8.4.92,0a17.44,17.44,0,0,0-1.64-13.47,29.62,29.62,0,0,1,2.65,2.85c.56-6.76-4.64-19.2-4.32-19.16l.3.06c3.32,3,5.21,7.68,6.47,11.39a34.28,34.28,0,0,1,1.82,9.81c.1,3.1-.58,6.11-.71,9.21,0,.4.68.6.9.23a29,29,0,0,0,3.47-13c0-.34,0-.66,0-1,2.61-10.45,8.78-14.25,14.11-15.43a22.11,22.11,0,0,0-4.36,3c-2.29,2.12-4.6,4.62-5.62,7.44s-1.75,6.11-1.31,9c.06.39.67.35.9.08,1.44-1.64,2-3.82,3.13-5.66a30.05,30.05,0,0,1,4.93-6.22,43.48,43.48,0,0,1,6.8-5.14,36.9,36.9,0,0,1,4-1.82,37.29,37.29,0,0,0-9.6,10.29,20.29,20.29,0,0,0-1.15,2.11,18.8,18.8,0,0,0-2.58,3.55c-1.94,3.5-4.72,7.5-5.21,11.38,0,.45.65.53.9.22,2-2.48,3.63-5.28,6-7.56a35.75,35.75,0,0,1,8-6,41.63,41.63,0,0,1,10-4.12c.12,0,2-.43,3.57-.67-3.07,1.6-11.26,5.39-13.17,7.13a24.93,24.93,0,0,0-3,3.22,23.57,23.57,0,0,1,4.48-.83,15.55,15.55,0,0,0-5.31,2.13c-3.15,2.08-6.75,4.69-8,8.08-.13.39.48.73.79.42a25.85,25.85,0,0,1,11.79-6.63l.38-.1a22.43,22.43,0,0,0-5.26,2.32,21,21,0,0,0-8.27,9.54l-24-.26c-3.14-4.81-9.45-9.47-15.93-10.09A10.79,10.79,0,0,1,1512.2,1047.71Z" transform="translate(50.97 17.09)"/><path class="cls-20" d="M1547.7,1029.11c-.12-1,1.78-2.52,2.38-3.13a11.8,11.8,0,0,1,4.43-2.78,6.56,6.56,0,0,1,1.38-.38c.6-.07.95.18.54.63s-8.4,6.57-8.68,5.82A.37.37,0,0,1,1547.7,1029.11Z" transform="translate(50.97 17.09)"/><path class="cls-20" d="M1564.53,1042.91a3.7,3.7,0,0,1,2.5.13c.55.46-.4.63-.88.67a2.42,2.42,0,0,1-1.67-.23C1564.24,1043.2,1564.3,1043,1564.53,1042.91Z" transform="translate(50.97 17.09)"/><path class="cls-20" d="M1556.2,1033.74c.32-.75,2-1.57,2.56-1.8a11.23,11.23,0,0,1,4.29-.83,2.69,2.69,0,0,1,1.15.17c1,.4-.58.92-1,1a27.79,27.79,0,0,0-4,1.59,7.76,7.76,0,0,1-1.7.63c-.39.06-1.15,0-1.31-.39A.55.55,0,0,1,1556.2,1033.74Z" transform="translate(50.97 17.09)"/><path class="cls-20" d="M1531,1025.09c2.23.94,3.93,3.56,4.87,6a16.16,16.16,0,0,1,1.11,3.43c.7,2.09,1.19,4.37.08,4.64-.49.11-1-.57-1.13-.88-.74-2.25-1-4.57-1.78-6.81a35.25,35.25,0,0,0-3.39-6.08C1530.63,1025.24,1530.69,1025,1531,1025.09Z" transform="translate(50.97 17.09)"/><path class="cls-20" d="M1515.24,1030.91c2.82-.21,5.83,1.77,7.88,3.08a14.45,14.45,0,0,1,4.55,4.59,3.1,3.1,0,0,1,.38,2.88c-.17.33-.76-.14-.86-.29a30.14,30.14,0,0,0-5.13-5.09c-2-1.6-4.61-2.64-6.57-4.28C1515.37,1031.69,1514.77,1030.93,1515.24,1030.91Z" transform="translate(50.97 17.09)"/><path class="cls-20" d="M1510.49,1038.62a1.21,1.21,0,0,1,.51-.23,6,6,0,0,1,2.89.47c.62.18,3.31,1.14,2.75,2-.34.52-2.06.09-2.58-.05a10.26,10.26,0,0,1-3-.94C1510.53,1039.6,1510.12,1039,1510.49,1038.62Z" transform="translate(50.97 17.09)"/><path class="cls-22" d="M1550.43,1053.85a4.32,4.32,0,0,0-.24-2c-3.49-8.46-18.62-2.54-21,3.68-2.08,5.48,11.92,4.74,15.25,4.13,2.44-.44,4.29-1.26,5.6-3.09A3.28,3.28,0,0,0,1550.43,1053.85Z" transform="translate(50.97 17.09)"/><path class="cls-23" d="M1536.4,1053.86a.91.91,0,0,0-.06-.44c-.75-1.84-4-.56-4.57.8-.45,1.19,2.61,1,3.33.9a1.8,1.8,0,0,0,1.22-.67A.71.71,0,0,0,1536.4,1053.86Z" transform="translate(50.97 17.09)"/><path class="cls-22" d="M1500.46,1056a1.94,1.94,0,0,0-.13-1c-1.76-4.33-9.52-1.3-10.73,1.89-1.07,2.79,6.1,2.43,7.81,2.11a4.17,4.17,0,0,0,2.87-1.58A1.69,1.69,0,0,0,1500.46,1056Z" transform="translate(50.97 17.09)"/><path class="cls-23" d="M1493.28,1056a.57.57,0,0,0,0-.23c-.39-.94-2.08-.27-2.34.42s1.32.53,1.7.47a1,1,0,0,0,.62-.35A.37.37,0,0,0,1493.28,1056Z" transform="translate(50.97 17.09)"/><path class="cls-24" d="M1522.3,1053.73a4.16,4.16,0,0,0-.25-2c-3.53-8.59-18.9-2.58-21.31,3.74-2.11,5.54,12.11,4.8,15.5,4.2,2.46-.44,4.34-1.29,5.68-3.15A3.35,3.35,0,0,0,1522.3,1053.73Z" transform="translate(50.97 17.09)"/><path class="cls-25" d="M1508.06,1053.75a1.09,1.09,0,0,0-.06-.45c-.77-1.87-4.12-.56-4.64.82-.46,1.21,2.64,1.05,3.37.91a1.81,1.81,0,0,0,1.24-.68A.74.74,0,0,0,1508.06,1053.75Z" transform="translate(50.97 17.09)"/><path class="cls-22" d="M1530.46,1056.15a2.14,2.14,0,0,0-.13-1c-1.77-4.33-9.53-1.29-10.74,1.89-1.06,2.79,6.11,2.43,7.81,2.1a4,4,0,0,0,2.87-1.58A1.68,1.68,0,0,0,1530.46,1056.15Z" transform="translate(50.97 17.09)"/><path class="cls-23" d="M1523.28,1056.15a.43.43,0,0,0,0-.22c-.38-.93-2.06-.28-2.33.42s1.33.53,1.7.46a.94.94,0,0,0,.63-.34A.49.49,0,0,0,1523.28,1056.15Z" transform="translate(50.97 17.09)"/><path class="cls-28" d="M1252.61,1060.21s-79.17,8.83-45.67,12.75,501.4,6.86,553.16-11.76S1419.06,1050.41,1252.61,1060.21Z" transform="translate(50.97 17.09)"/><path class="cls-29" d="M1232.13,979.76l-.51-22.35s53-.22,118.35-.22,297.69,9.07,356.35,8.41c0,0,28.57-4,40.15,14.6,6.36,10.22,25.46,59.08-20.85,76.34,0,0-14.66,4-42.45,6s-437.92.67-451.81,0S1232.13,979.76,1232.13,979.76Z" transform="translate(50.97 17.09)"/><path class="cls-30" d="M1520.93,1064.34c-124.06,0-280.92-.63-289.63-1a4.48,4.48,0,0,1-3.08-1.47c-9.7-10.29,2.49-79.25,3-82.18l-.52-22.21a.65.65,0,0,1,.26-.55.89.89,0,0,1,.64-.24c.52,0,53.75-.22,118.36-.22,30.94,0,97.94,2,168.88,4.1,76.92,2.28,156.56,4.65,187.46,4.3-.08,0,29.09-4,41,15,3.53,5.68,15,31.25,6.22,52.8-4.54,11.23-13.8,19.52-27.5,24.63-.23.07-15.17,4.06-42.73,6C1671.08,1064.16,1588.26,1064.34,1520.93,1064.34ZM1232.54,958.19l.5,21.56c-.14.85-12.62,71.33-3.4,81.09a2.51,2.51,0,0,0,1.76.89c8.7.42,165.5,1.06,289.53,1.06,67.3,0,150.07-.18,162.17-1,27.34-2,42.1-5.9,42.25-5.94,13.13-4.9,22.05-12.88,26.42-23.68,8.5-21-2.65-46-6.1-51.55-11.25-18-39.12-14.21-39.2-14.2-2.21,0-4.49,0-7,0-34.68,0-108.91-2.21-180.7-4.35C1447.87,960,1380.88,958,1350,958,1290,958,1239.87,958.16,1232.54,958.19Z" transform="translate(50.97 17.09)"/><path class="cls-31" d="M1259.58,977.07c-5.51-13-18-23.18-34.76-18.72C1200,965,1195,988,1193.9,1007.23c-1.1,18.82,2.22,46.06,26.63,53.62,28.32,8.77,41.56-18,44.7-36.33A87.66,87.66,0,0,0,1259.58,977.07Z" transform="translate(50.97 17.09)"/><path class="cls-30" d="M1231.14,1063.34h0a37,37,0,0,1-10.92-1.76c-26-8-28.2-37.52-27.21-54.39,1-18,5.45-42.65,31.55-49.6a31.77,31.77,0,0,1,8.08-1.09c12,0,22.39,7.59,27.8,20.29a88.89,88.89,0,0,1,5.69,47.84c-1.61,9.36-5.37,18.57-10.29,25.26C1249.36,1058.69,1240.81,1063.34,1231.14,1063.34Zm1.5-105.28a29.49,29.49,0,0,0-7.55,1c-25,6.65-29.26,30.68-30.28,48.18-1,16.43,1.15,45.15,26,52.85a35,35,0,0,0,10.31,1.67c21.13,0,30.81-23.5,33.2-37.39a87.46,87.46,0,0,0-5.61-47.07C1253.61,965.26,1243.85,958.06,1232.64,958.06Z" transform="translate(50.97 17.09)"/><path class="cls-32" d="M1259.58,977.07a37,37,0,0,0-4.13-7.34c9.81,21.39,7.51,56.11-5.1,73.7-9.15,12.74-27.36,17.13-43.92,6.59a29.66,29.66,0,0,1-5.1-4.11,33.44,33.44,0,0,0,19.2,14.94c28.32,8.77,41.56-18,44.7-36.33A87.66,87.66,0,0,0,1259.58,977.07Z" transform="translate(50.97 17.09)"/><path class="cls-33" d="M1254.6,990.35c-2.59-11-10.08-23.23-24.34-24.75-8.37-.9-13.93,1.43-18.49,6.34-14.09,11.22-15.42,34.72-14.16,49.12,1,10.89,3.92,26.72,14.73,33.6,8,5.12,20.05,4.67,27.78-1.22C1259.58,1038.66,1259.3,1010.39,1254.6,990.35ZM1212,1051.44c-8-5.47-10.36-21.08-11.55-29.12-2-13.36-1.83-34.05,8.6-46.42a.91.91,0,0,0,.38-.24c7.65-9.41,19.86-10.47,30.19-4.14,10,6.12,12.65,16,14.34,25.75,3,17.46,1.09,37.73-10.9,52.32C1234.91,1059.44,1220.9,1057.51,1212,1051.44Z" transform="translate(50.97 17.09)"/><path class="cls-33" d="M1245.26,995.44c-1-5.82-2.89-19.24-11.07-21.55-6.29-1.78-10-2.78-13.51-1.09,0,0-.1,0-.24,0s-.31.24-.48.35a11.46,11.46,0,0,0-1.44,1c-14.56,10.71-16,31.87-14.45,46.89.89,8.29,1.66,20,8.84,26.17,6.21,5.33,16.08,5,22.06-.31C1249.39,1034.15,1247.94,1011.6,1245.26,995.44Zm-6,44.45c-6.11,13.17-23.3,10.69-28.4.12-3.07-6.37-3.87-13.43-4.71-20.22-1.61-12.88-.62-31.24,9.48-42.27.1.29.59.29,1.12-.25,4.93-5,14-3.31,18.76,1.19,5.09,4.78,6.35,12.35,7.71,18.45C1246.41,1011.07,1245.51,1026.46,1239.27,1039.89Z" transform="translate(50.97 17.09)"/><path class="cls-33" d="M1234.78,1001.89c-1.54-8-3.55-15.75-10-21.9-3.35-3.2-5.61-1.56-7.37,1.23-.29.45-.19.65,0,.65-9,9.63-7.73,24.52-7.78,36,0,7.11,3.74,31.44,16.84,21.58,4.7-3.53,6.46-10.89,7.91-15.74C1236.52,1016.79,1236.13,1008.9,1234.78,1001.89Zm-.7,15c-.11,3.66-4.83,26.55-14.87,21.78-7.34-3.48-7-19.4-7.08-25.38-.05-10.48-1.38-24.14,7.27-32.77,3.62-1.69,9.43,8.27,10.06,9.76a91.41,91.41,0,0,1,3.82,12.85C1234.42,1007.62,1234.22,1012.35,1234.08,1016.9Z" transform="translate(50.97 17.09)"/><path class="cls-33" d="M1221.82,986.35c-.12-.18-.33-.15-.51-.08a5.29,5.29,0,0,0-1.63,1.06,18.24,18.24,0,0,1,1-1.54c.27-.38-.15-.43-.39-.15-5.38,6.29-6,13.27-6.07,20.9,0,4.51-.31,20.8,6.21,22.57.31.09.73-.23.91-.38,4.45-3.58,3.78-10.41,4.29-15.22C1226.51,1005,1226.94,994.06,1221.82,986.35Zm-4.09,5.07c-.1.56-.18,1.13-.26,1.7-.3,2.46-1.11,6.32-1.43,10.19A32.68,32.68,0,0,1,1217.73,991.42Zm6.4,25.31a75.76,75.76,0,0,1-1.48,8l-3.06.18a18.56,18.56,0,0,1-1.22-4.65c-.51-2.63-1-5.4-1.48-8.24a6.82,6.82,0,0,0,2,2.83c.11.09.33,0,.45,0,4.7-1.9,4.41-13.39,1.39-16.23-.35-.33-1.42.75-1.06,1.14,2.72,3,.84,9.4.48,12.56q-3.59-1.12-2.07-5.46a47.53,47.53,0,0,1,0-7.64c0-.87,1.36-14,3.92-9.06,2.22,4.34,2.64,9.56,2.65,14.22A115.53,115.53,0,0,1,1224.13,1016.73Z" transform="translate(50.97 17.09)"/><path class="cls-30" d="M1697.59,1031.53c-8.11-.36-16.16.85-24.26.89-8.48,0-17-.21-25.47-.31-18.47-.23-36.91-1.1-55.35-2.11a970.29,970.29,0,0,0-107.59.53c-17.16,1-34.42,1.63-51.56,2.87-8.17.6-16.07-.43-24.21-.32-8.75.13-17.38.58-26.12.05-18.1-1.08-36.18-1.15-54.3-1.61-9-.24-18-.43-27-.4-3,0-6.11.3-9.15.57-4.82.44-12.53,2.07-17-.18-.21-.11-.61.5-.43.59,5.59,3.27,12.7,1.33,18.83,1.1,9.28-.35,18.56.43,27.82.93,18,1,36.12,1.32,54.16,2.44,33.34,2.07,66.33.3,99.61-2.71a780.07,780.07,0,0,1,110.53-2.17c18.53,1,37,2,55.59,2.26s36.75-.29,55.26-1.31C1697.33,1032.63,1698,1031.55,1697.59,1031.53Z" transform="translate(50.97 17.09)"/><path class="cls-30" d="M1611.58,1049.54c-2.36-4-10.18-4.67-14-5.48-7.87-1.7-16.1-1.58-24.08-1.68-13.32-.18-26.33-1.89-39.67-1.37-2.13.08-9.71-.38-10.4,2.89-.54,2.6,23.23,4.39,25.15,4.43.39,0,1-1.15.62-1.15-8.2-.07-16.31-.58-24.3-2.69-2.15-.57,3.52-2.5,3.33-2.48a41.48,41.48,0,0,1,5.23-.31c4.52-.09,9,.13,13.47.44s9.08,1.52,13.7,1.94c5.56.5,11.22.25,16.81.48a135.42,135.42,0,0,1,16.55,1.55c3.59.57,10.25,1.51,13.72,4.53-2.7.29-6.22-.18-7.9-.12-5.27.19-10.54.84-15.78,1.37a310.87,310.87,0,0,1-34.64,1.51,160.35,160.35,0,0,1-33.07-4.41c-9.07-2.09-20.29-1.56-28.51-6.65-4.43-2.74,3.81-3.12,5.4-3.34,6.82-.92,13.65-1.76,20.51-2.13,4.76-.26,9.49.12,14.24.25,5.22.14,10.4-.88,15.63-.78,11.17.21,22.38.8,33.57,1.21,10.62.39,20.92,3.18,31.39,4.56.26,0,.75-.75.44-.82-22.5-4.79-45.2-8-68.29-7.56-10.25.18-20.67.06-30.92.84-6.12.46-12.21,1.54-18.28,2.56-2.19.37-5.27,1.17-6.87,3.09-.25.3-.83,1.06-.49,1.51,2.63,3.35,6.31,4.47,10,5.26,5.62,1.19,11.34,2,17,3.09,12.23,2.44,24.46,5,36.91,5.73,11.56.69,23.17,0,34.71-.78,7.07-.48,14.07-1.4,21.16-1.35,2.2,0,4.59.1,6.48-1.32C1611.1,1051.87,1612.13,1050.45,1611.58,1049.54Z" transform="translate(50.97 17.09)"/><path class="cls-30" d="M1442.73,1048.62c-14.86-2-29.53-4.15-44.51-5.14-14.61-1-29.38-.62-44-.67-14,0-27.78-1.4-41.83-.57-15.7.92-30.6,5.12-46.27,1.81-.25,0-.7.68-.42.76,13.84,3.84,26.45,1.28,40.51.27a237.28,237.28,0,0,1,46.23.94c14.42,1.8,29.39,0,43.9.89,15.31.93,30.51,2.7,45.87,2.67C1442.5,1049.58,1443.09,1048.67,1442.73,1048.62Z" transform="translate(50.97 17.09)"/><path class="cls-30" d="M1500.2,1056.44c-13.19-.47-26.32.42-39.46,0-12.21-.35-23.78-1-35.84-3.21-.19,0-.54.52-.33.58,24.38,6.37,50.13,7,75.06,3.79C1499.94,1057.61,1500.62,1056.47,1500.2,1056.44Z" transform="translate(50.97 17.09)"/><path class="cls-30" d="M1718,1041.11c-15.33-.43-31,.61-46.3,1.57-8.51.53-17.26,1.7-25.76,1.23-3.68-.2-7.37-.25-11.05-.47-2.65-.15-6.18.55-8.64-.4-.23-.09-.74.68-.51.81,4.42,2.66,11.76,1.75,16.69,2.16,7.74.65,15.19-.07,22.93-.35,17.26-.64,34.7-.41,51.86-2.9C1717.6,1042.7,1718.54,1041.13,1718,1041.11Z" transform="translate(50.97 17.09)"/><path class="cls-30" d="M1536.19,977.61c-44.81-.05-89.79,2.49-134.38-3.15-22.16-2.81-44.66-2.38-66.94-2.23-10.71.07-21.41,0-32.12,0-5.6,0-11.08.44-16.65.73-3.29.17-6.45-.28-9.46,1.39-.31.17-.89,1.38-.24,1.07,3.87-1.85,9.24-.29,13.33-.59,5.37-.39,10.88.17,16.25.33,10.71.31,21.42.56,32.15.67,22.11.24,44.25.62,66.21,3.54,19.69,2.63,40.79,4.77,60.6,2.59,23.63-2.61,47.14-3.15,70.85-3.66C1536,978.33,1536.43,977.61,1536.19,977.61Z" transform="translate(50.97 17.09)"/><path class="cls-30" d="M1704.68,989.13c-28.54-1.45-56.93-3.51-85.51-3-29.86.56-59.65,1.62-89.49,1.28-.22,0-.58.65-.36.66,28.55.88,57.08.56,85.63,1.23,14.67.35,29.41,0,44.08,0,15,0,29.93,1.28,44.88,1.17C1704.37,990.51,1705.15,989.16,1704.68,989.13Z" transform="translate(50.97 17.09)"/><path class="cls-30" d="M1715.15,970.68c-4.23-1-8.86,0-13.18.27-7.37.54-14.71,1.15-22.1,1.33-12.38.3-24.77.25-37.17.36-.23,0-.61.69-.38.69,12.12.4,24.23.89,36.34,1.14,11.43.23,24.22,1,35.46-1.64C1714.58,972.72,1716,970.87,1715.15,970.68Z" transform="translate(50.97 17.09)"/><path class="cls-30" d="M1381,998c-14.49-1-29-2.74-43.54-1.07-7.57.88-15.26.4-22.85,1.12-8.21.77-17,2.17-25.19,1.6-.24,0-.65.69-.4.72,6.76.78,13.57-.29,20.36-.4,7.61-.13,15.17-.46,22.78-.34s15.19-1.06,22.81-.74c8.55.36,16.93.54,25.5.08C1380.8,999,1381.38,998,1381,998Z" transform="translate(50.97 17.09)"/><path class="cls-30" d="M1615.5,1004.49c-8.19-.76-16.36-1.71-24.58-2-7.5-.29-15,1-22.5,1.68-17.24,1.63-34.75,1.23-52,0-16.66-1.21-33.43-.51-50.12-1.22-8.26-.35-16.56,0-24.83-.18-7-.18-14.89,1.16-21.68-.41-.18,0-.51.48-.31.55,6.51,2.1,14.21,1.27,20.94,1.75,8.14.58,16.29.58,24.44.89,16.6.65,33.31.52,49.89,1.66a310,310,0,0,0,47.7-.14c9.14-.77,18.23-2.4,27.4-2.65,8.4-.23,16.81.54,25.19.91C1615.33,1005.29,1615.77,1004.52,1615.5,1004.49Z" transform="translate(50.97 17.09)"/><path class="cls-30" d="M1732.73,1001.11c-8.1.16-16.17.42-24.26.76-8.32.33-17.21,1.33-25.46.33-.24,0-.67.67-.4.72,8.1,1.54,16.6.76,24.8.85,8,.08,16.5.73,24.39-.68C1732.3,1003,1733.41,1001.1,1732.73,1001.11Z" transform="translate(50.97 17.09)"/><path class="cls-34" d="M1728.1,1026.4c-21.12,2-42.36-.55-63.55.36a261.5,261.5,0,0,1-30.28,0c-15.22-.08-30.44-.74-45.64-1.17-22.49-.64-45-.34-67.46.39-44.85,1.44-89.69,2.22-134.55,3.46-21.57.59-44,3.85-65.55,2.3-13-.94-28.9-3.62-36.53-13.88-7.3-9.84-7.46-21.67-11.89-32.43-4.65-11.29-16.06-25.07-30.68-28.08h-3.37c7.32,3.16,13.52,10,16.75,15.49a77.71,77.71,0,0,1,10.29,46.51c-.76,7-1.69,14.95-6.06,21.05-3.7,5.18-8.4,12.27-13.81,16.28a43.57,43.57,0,0,1-11.5,5.87c39.35.68,422.09,1.85,448.9-.08,27.79-2,42.45-6,42.45-6,24.68-9.19,30.78-27.36,30.13-43.87C1750.6,1022.46,1740.39,1025.24,1728.1,1026.4Z" transform="translate(50.97 17.09)"/><path class="cls-35" d="M1657.15,1065.77H1697a23.45,23.45,0,0,1,16.48-8.71,25.51,25.51,0,0,0-10.28-4.24,34.12,34.12,0,0,1,11.15-3.3,29.85,29.85,0,0,0-23.83-1.28c4.8-8.06,13.19-14.31,13.19-14.31-17.73-2-27.32,12.17-27.32,12.17-1.35-8,6.58-17.84,6.58-17.84a27.2,27.2,0,0,0-14.52,18.3c-4.59-7.85-13.73-8.88-13.73-8.88,9.78,7.07,6.9,14.25,6.9,14.25-9.35-8.2-19.58-2.46-19.58-2.46,7.23-.11,12,5.86,12,5.86-7.52-1-15,9.43-15,9.43,9.11-4,17.66,1,17.66,1Z" transform="translate(50.97 17.09)"/><path class="cls-36" d="M1657.15,1065.77H1697a23.45,23.45,0,0,1,16.48-8.71,25.51,25.51,0,0,0-10.28-4.24,34.12,34.12,0,0,1,11.15-3.3,29.85,29.85,0,0,0-23.83-1.28c4.8-8.06,13.19-14.31,13.19-14.31-17.73-2-27.32,12.17-27.32,12.17-1.35-8,6.58-17.84,6.58-17.84a27.2,27.2,0,0,0-14.52,18.3c-4.59-7.85-13.73-8.88-13.73-8.88,9.78,7.07,6.9,14.25,6.9,14.25-9.35-8.2-19.58-2.46-19.58-2.46,7.23-.11,12,5.86,12,5.86-7.52-1-15,9.43-15,9.43,9.11-4,17.66,1,17.66,1Z" transform="translate(50.97 17.09)"/><path class="cls-37" d="M1694.87,1065.77c3.89-5.31,14.12-9.76,14.12-9.76-5.26-2.39-14.4-.31-14.4-.31,5.78-6.35,15.55-6.61,15.55-6.61-10.86-3.12-26.26,8.68-26.26,8.68,1.15-10,17.42-22.93,17.42-22.93-18,.11-26,18.64-26,18.64-3.95-8.82,3.35-20.66,3.35-20.66-5.15,5.28-7.24,18.91-7.24,18.91-2.07-4.87-7.24-7.79-7.24-7.79,4.89,7,8.55,16.75,8.55,16.75-9-10.07-19.34-11-19.34-11,11.19,2.58,16.61,13.28,16.61,13.28-11.63-8.16-24.41-1.62-24.41-1.62,8.46-2.92,16.24,2.88,18.16,4.46Z" transform="translate(50.97 17.09)"/><path class="cls-38" d="M1714.53,970.74c-3.86-1.51-9.33-.57-13.47-.57-8.81,0-17.61.06-26.41-.17-18.21-.48-36.47-2-54.68-2-18,0-36.32-1-54.38-1.62-19.6-.62-39.14-1-58.7-2.31-37.46-2.53-75.44-2.51-113-1-15.52.63-31,1.81-46.48,1.73.07-.29,0-.51-.33-.55-7.53-.83-15.16-.63-22.74-1-6.42-.35-14.64-1.24-21-.56-5.94.65-11.88-.45-17.83.28h-.21c-1-.11-1.95-.25-2.89-.42-.2,0-.45.23-.54.43-4.27-.34-8.5-1.67-12.67-.22-.62.22-2.28,1.75-1.45,2.38,3,2.17,8.54,2,12.27,2.19,9.74.46,19.32,2.16,29,3.12,19.37,1.9,38.71,5.51,57.7,9.24,19.52,3.84,40.76,4.51,60.73,5.29,21.54.84,43.56,1.21,65.11.62,9.07-.25,18.12-1,27.16-1.63,11-.84,22.18-.64,33-2.18,18.63-2.65,37.42-2.19,56.31-2.18a420.73,420.73,0,0,0,53-3c8.15-1,16.84.33,25.13-.3,7.88-.59,19-.46,26-3.59C1713.66,972.55,1715.38,971.06,1714.53,970.74Z" transform="translate(50.97 17.09)"/><path class="cls-38" d="M1520.93,1015.18c-3.92-1.59-10.36-1.19-14.67-1.44-7.21-.43-14.46-.21-21.65-1-15.72-1.62-32.22-.11-48-.23-16-.12-31.58-3.46-47.4-5.13-3.5-.37-7-.57-10.5-.68-4.82-.91-9.66-1.72-14.54-2.33-9-1.13-16.78-1.63-25.67.13-10.69,2.12-21.41,4.47-32.45,4.65-1.49,0-5,3.35-2.87,4,7.9,2.45,17.18,2.43,25.51,2.49,9.53.08,19.1,1.85,28.43,3.29,19.34,3,38.44,5.24,58.11,5.69a520.61,520.61,0,0,0,57-2.17c9.46-.83,19-1.43,28.46-2.43,5.92-.62,14.25-.77,19.47-3.52C1520.29,1016.47,1521.55,1015.43,1520.93,1015.18Z" transform="translate(50.97 17.09)"/><path class="cls-38" d="M1656.37,1008.9a262.74,262.74,0,0,1-41.42,1.53c-9-.37-17.4,1.33-26,2.69,4.23,1.09,8.82.67,13.21.67a95.28,95.28,0,0,1,17.53,2.08c10.82,2,22.42,1.88,33.38,2.57,23.14,1.47,47.31-3.9,70.22-5.6.56,0,2.17-1.54,1.65-2.06C1702.11,1009.44,1679.1,1006.29,1656.37,1008.9Z" transform="translate(50.97 17.09)"/><path class="cls-39" d="M1248.67,967.89a.73.73,0,0,0-.5-.28c-11.93-12.92-35.28-5.8-43.76,8.63-5.4,9.21-7.2,18.92-8.54,29.1s.72,24.09,4.91,33.53c.3.68,1.65-.77,1.54-1.27-1.46-7.44-2.31-15-1.52-22.52.13-1.27.31-2.51.52-3.74a5.25,5.25,0,0,0,1.76,2.39c.68.48,1.81-.94,1.89-1.38a48.8,48.8,0,0,1,4.83-14.9c2-3.89,8.28-17.62,14.25-17.88,5-.22,9.25,3.52,13,5.83,5.12,3.15,4,9.15,6.85,13.27.3.44,1-.44,1.07-.66,1.92-5.68-.12-12.43-2-18.32,1.8.55,3.78,1.32,5.35,1.21,1.15-.08,2.44-1.74,3-2.31C1255.32,974.87,1251.06,970.94,1248.67,967.89Z" transform="translate(50.97 17.09)"/></g></g></g></svg>